<svg version="1.1" id="Layer_1" xmlns="http://www.w3.org/2000/svg" xmlns:xlink="http://www.w3.org/1999/xlink" x="0px" y="0px"
	 width="100%" viewBox="0 0 488 490" enable-background="new 0 0 488 490" xml:space="preserve">
<path fill="#F9F8F8" opacity="1.000000" stroke="none" 
	d="
M1.000000,177.000000 
	C1.000000,118.014931 1.000000,59.529869 1.000000,1.022401 
	C163.610199,1.022401 326.220428,1.022401 488.915314,1.022401 
	C488.915314,164.235138 488.915314,327.470337 488.915314,490.852783 
	C326.333435,490.852783 163.666733,490.852783 1.000000,490.852783 
	C1.000000,386.446136 1.000000,281.973053 1.000000,177.000000 
M302.990082,479.533264 
	C303.952148,479.336700 304.928619,479.193085 305.874268,478.936096 
	C360.185211,464.175934 404.572327,434.543762 438.497589,389.636047 
	C466.506775,352.559631 481.676605,310.307129 485.735107,264.298553 
	C487.849030,240.334198 486.446838,216.225082 480.828918,192.652405 
	C467.083984,134.979126 437.429565,87.615044 389.569061,51.962158 
	C347.946411,20.956039 300.912323,5.812495 249.456238,4.158267 
	C229.138199,3.505077 208.973648,6.121346 189.077621,10.899214 
	C130.855835,24.880714 84.718796,56.616745 49.997780,105.087631 
	C23.294556,142.365585 8.638783,184.233795 5.228332,229.806656 
	C3.531401,252.482224 4.956311,275.240753 10.316811,297.467285 
	C23.201199,350.890503 50.349800,395.627594 92.540459,431.082367 
	C120.289146,454.400879 151.917664,470.208679 186.974579,478.830750 
	C200.804245,482.232025 215.052475,484.402069 229.241379,485.725647 
	C240.958450,486.818573 252.931519,486.576385 264.676514,485.577637 
	C277.264587,484.507172 289.718597,481.860596 302.990082,479.533264 
z"/>
<path fill="#060606" opacity="1.000000" stroke="none" 
	d="
M302.610596,479.717560 
	C289.718597,481.860596 277.264587,484.507172 264.676514,485.577637 
	C252.931519,486.576385 240.958450,486.818573 229.241379,485.725647 
	C215.052475,484.402069 200.804245,482.232025 186.974579,478.830750 
	C151.917664,470.208679 120.289146,454.400879 92.540459,431.082367 
	C50.349800,395.627594 23.201199,350.890503 10.316811,297.467285 
	C4.956311,275.240753 3.531401,252.482224 5.228332,229.806656 
	C8.638783,184.233795 23.294556,142.365585 49.997780,105.087631 
	C84.718796,56.616745 130.855835,24.880714 189.077621,10.899214 
	C208.973648,6.121346 229.138199,3.505077 249.456238,4.158267 
	C300.912323,5.812495 347.946411,20.956039 389.569061,51.962158 
	C437.429565,87.615044 467.083984,134.979126 480.828918,192.652405 
	C486.446838,216.225082 487.849030,240.334198 485.735107,264.298553 
	C481.676605,310.307129 466.506775,352.559631 438.497589,389.636047 
	C404.572327,434.543762 360.185211,464.175934 305.874268,478.936096 
	C304.928619,479.193085 303.952148,479.336700 302.610596,479.717560 
M81.007141,74.506943 
	C72.342926,84.505928 63.015987,94.011360 55.135090,104.593697 
	C28.334557,140.580994 13.531170,181.346924 9.075179,225.858612 
	C6.499240,251.590149 8.947271,277.096985 15.329666,302.067474 
	C28.720213,354.456665 56.898987,397.569702 98.945442,431.430023 
	C135.945526,461.226471 178.602631,477.480804 225.724091,481.892792 
	C250.425507,484.205597 275.155823,482.659943 299.208557,476.766449 
	C351.540192,463.943909 395.412567,437.080170 429.546997,395.024567 
	C462.386353,354.564484 479.346527,307.875092 482.851105,256.214539 
	C484.347748,234.152878 481.825134,212.203171 476.676575,190.744995 
	C467.302948,151.677689 449.728333,116.579018 422.388306,86.989090 
	C411.623962,75.338913 399.704529,64.469925 387.061218,54.895721 
	C349.525024,26.471270 306.616974,11.504578 259.843628,8.196686 
	C236.856766,6.571017 213.867432,8.663781 191.398743,14.079767 
	C149.445572,24.192411 112.274284,43.280266 81.007141,74.506943 
z"/>
<path fill="#FFFEFE" opacity="1.000000" stroke="none" 
	d="
M81.257225,74.257034 
	C112.274284,43.280266 149.445572,24.192411 191.398743,14.079767 
	C213.867432,8.663781 236.856766,6.571017 259.843628,8.196686 
	C306.616974,11.504578 349.525024,26.471270 387.061218,54.895721 
	C399.704529,64.469925 411.623962,75.338913 422.388306,86.989090 
	C449.728333,116.579018 467.302948,151.677689 476.676575,190.744995 
	C481.825134,212.203171 484.347748,234.152878 482.851105,256.214539 
	C479.346527,307.875092 462.386353,354.564484 429.546997,395.024567 
	C395.412567,437.080170 351.540192,463.943909 299.208557,476.766449 
	C275.155823,482.659943 250.425507,484.205597 225.724091,481.892792 
	C178.602631,477.480804 135.945526,461.226471 98.945442,431.430023 
	C56.898987,397.569702 28.720213,354.456665 15.329666,302.067474 
	C8.947271,277.096985 6.499240,251.590149 9.075179,225.858612 
	C13.531170,181.346924 28.334557,140.580994 55.135090,104.593697 
	C63.015987,94.011360 72.342926,84.505928 81.257225,74.257034 
M156.874939,386.956940 
	C158.590088,386.923462 160.305222,386.890015 162.903519,386.951324 
	C165.276062,386.916290 167.648621,386.881256 170.904434,386.950409 
	C173.276901,386.912384 175.649353,386.874359 178.903061,386.950226 
	C181.273239,386.912567 183.643402,386.874908 186.882736,386.953888 
	C188.926987,386.914948 190.971237,386.876007 193.908524,386.954926 
	C196.612457,386.913757 199.316391,386.872589 202.932938,386.951660 
	C206.627426,386.913239 210.321915,386.874786 214.909058,386.957977 
	C217.611816,386.916718 220.314590,386.875427 223.940018,386.960236 
	C228.634293,386.919800 233.328552,386.879395 238.948181,386.960541 
	C244.305817,386.915222 249.663467,386.869904 255.947845,386.953186 
	C266.635132,386.919769 277.322418,386.886322 288.937225,386.986420 
	C295.960510,386.942200 302.983795,386.898010 310.934387,386.991821 
	C318.291229,386.944885 325.648041,386.897949 333.931946,386.993500 
	C361.604340,386.993500 389.276703,386.993500 416.891663,386.993500 
	C416.891663,375.895355 416.891663,365.438446 416.971161,354.440033 
	C416.655731,354.335663 416.340302,354.231323 415.096313,353.968170 
	C388.398804,354.018372 361.701263,354.068604 334.075958,353.973785 
	C327.052521,354.021118 320.029114,354.068481 312.077637,353.970276 
	C304.721100,354.020172 297.364532,354.070038 289.079895,353.972778 
	C280.725830,354.030396 272.371796,354.087982 263.087708,354.002655 
	C255.733231,354.059906 248.378769,354.117126 240.107193,354.009979 
	C235.590759,354.053406 231.074310,354.096863 225.854813,353.993958 
	C222.574661,354.041931 219.294510,354.089935 215.106461,353.995544 
	C211.742966,354.040955 208.379456,354.086334 204.122925,353.995117 
	C201.419632,354.042084 198.716324,354.089050 195.130798,354.009521 
	C192.757843,354.051941 190.384903,354.094360 187.118851,354.010040 
	C184.417374,354.048737 181.715881,354.087463 178.132019,354.008881 
	C175.760895,354.050690 173.389771,354.092499 170.135361,354.015320 
	C167.764893,354.057495 165.394424,354.099701 162.170197,354.027130 
	C160.452316,354.060913 158.734451,354.094727 156.163376,354.026337 
	C154.450104,354.057800 152.736847,354.089264 150.192169,354.034576 
	C148.801056,354.058044 147.409943,354.081512 145.187424,354.029358 
	C143.797775,354.047974 142.408127,354.066589 140.130722,354.024261 
	C137.761429,354.037750 135.392120,354.051208 132.133514,354.018738 
	C129.762115,354.026794 127.390701,354.034851 124.117737,354.012115 
	C121.415474,354.015259 118.713203,354.018433 115.101639,354.005188 
	C112.070152,354.005493 109.038658,354.005798 105.078133,354.000610 
	C101.184601,354.000610 97.291077,354.000610 93.530701,354.000610 
	C94.415497,361.869690 95.378288,368.859955 95.950485,375.882050 
	C96.857216,387.009460 96.746643,387.018463 108.914108,386.995605 
	C111.946373,386.989807 114.978630,386.984009 118.898537,386.991211 
	C121.271118,386.980499 123.643700,386.969757 126.890106,386.985260 
	C128.933136,386.969147 130.976166,386.953033 133.874496,386.978668 
	C135.589172,386.957306 137.303864,386.935944 139.873383,386.972076 
	C141.588104,386.948364 143.302826,386.924652 145.872162,386.970215 
	C147.587265,386.942993 149.302383,386.915741 151.847916,386.972595 
	C153.239243,386.938263 154.630585,386.903961 156.874939,386.956940 
M287.606995,118.982330 
	C271.899658,109.636719 256.155273,100.352219 240.525391,90.878815 
	C238.213303,89.477448 236.582611,89.590607 234.455765,90.970398 
	C229.616974,94.109543 224.683029,97.106255 219.730392,100.064857 
	C209.166779,106.375343 198.566727,112.624809 187.620087,119.113556 
	C189.907288,121.615578 191.878662,123.772110 193.888672,125.970901 
	C207.645554,117.824203 221.118759,109.928192 234.482727,101.851418 
	C236.754852,100.478203 238.334320,100.556450 240.563675,101.907799 
	C252.401993,109.083733 264.407898,115.984695 276.193054,123.244957 
	C277.622681,124.125664 278.827240,126.583397 278.857849,128.332596 
	C279.114349,142.992249 279.065491,157.657150 279.122711,172.320404 
	C279.148315,178.880203 279.169373,178.894363 285.828491,178.859772 
	C286.775665,178.854858 287.722168,178.729034 288.860107,178.645065 
	C288.860107,175.198013 288.860107,172.067169 288.966095,168.012497 
	C288.972473,153.388809 289.007446,138.765015 288.943665,124.141632 
	C288.936890,122.581520 288.353363,121.023933 287.606995,118.982330 
M370.702118,307.500366 
	C370.705963,297.837860 370.781464,288.174683 370.690460,278.513062 
	C370.620483,271.086853 368.738159,264.336639 361.333984,260.970947 
	C353.671814,257.487915 345.673065,257.786041 338.962341,262.788727 
	C331.788544,268.136597 330.664764,276.321472 331.071320,284.748566 
	C335.717743,284.748566 339.820496,284.748566 343.258057,284.748566 
	C344.230438,281.240417 344.724213,277.971375 346.040649,275.076416 
	C347.788147,271.233673 354.732239,270.219940 355.736969,273.670441 
	C357.198547,278.690094 357.112946,284.315216 356.715302,289.609192 
	C356.619415,290.885773 352.826233,292.381317 350.533386,292.911377 
	C339.823120,295.387329 332.707245,301.581818 330.248322,312.371979 
	C329.169281,317.106873 329.061737,322.063171 328.543610,326.648987 
	C321.561188,326.648987 314.821045,326.648987 307.677521,326.648987 
	C307.677521,278.579559 307.677521,230.858109 307.677521,183.204498 
	C303.302948,183.204498 299.354095,183.204498 295.354004,183.204498 
	C295.354004,236.578018 295.354004,289.751099 295.354004,342.651001 
	C306.790405,342.651001 317.866821,342.651001 329.215515,342.651001 
	C329.215515,338.467865 329.215515,334.635590 329.215515,330.803314 
	C330.582520,337.605804 333.787354,342.421753 340.842987,344.423767 
	C348.155273,346.498596 352.479370,341.182495 357.865509,337.587036 
	C357.959900,339.744415 358.023773,341.204834 358.087341,342.657227 
	C362.804260,342.657227 367.364197,342.657227 370.705200,342.657227 
	C370.705200,331.032806 370.705200,319.766632 370.702118,307.500366 
M391.015533,249.493301 
	C391.015533,241.068436 391.015533,232.643585 391.015533,224.277985 
	C386.046417,224.277985 381.643616,224.277985 377.250916,224.277985 
	C377.250916,263.935120 377.250916,303.310516 377.250916,343.001465 
	C380.278656,343.001465 383.104797,342.749817 385.868500,343.058014 
	C390.494720,343.573883 389.654388,339.836945 390.400360,336.534546 
	C394.567261,343.873596 400.622986,345.114410 407.351624,343.616852 
	C412.581726,342.452759 416.896332,336.682129 416.948212,330.759247 
	C417.111481,312.115051 417.235382,293.464508 416.912384,274.824463 
	C416.744720,265.150177 410.461334,258.674103 402.167480,259.542877 
	C398.298645,259.948090 394.650726,262.462463 391.015228,263.974030 
	C391.015228,259.808594 391.015228,255.149033 391.015533,249.493301 
M79.915428,219.499985 
	C79.941696,234.986847 79.920975,250.473984 80.011848,265.960480 
	C80.066505,275.276215 86.227798,281.968170 96.417603,282.841522 
	C104.467682,283.531494 114.060799,280.016510 115.887817,270.679260 
	C117.066010,264.657990 116.931335,258.379761 117.378891,252.300415 
	C112.988159,252.300415 109.581261,252.300415 105.991875,252.300415 
	C105.991875,256.744537 106.244987,260.910492 105.913025,265.029327 
	C105.639946,268.417419 103.755470,270.842468 99.954933,270.991180 
	C97.092552,271.103149 94.038864,271.249573 93.078552,267.704651 
	C92.484283,265.510986 92.216278,263.157043 92.238724,260.879395 
	C92.437225,240.739105 92.599419,220.595642 93.222710,200.467041 
	C93.280724,198.593430 96.174446,195.713303 98.219032,195.213684 
	C103.117615,194.016617 105.667259,196.762024 105.962440,202.658768 
	C106.149757,206.400818 105.997452,210.159897 105.997452,213.663727 
	C110.085999,213.663727 113.492912,213.663727 116.878242,213.663727 
	C116.878242,208.009537 117.669449,202.545944 116.713081,197.407623 
	C114.739182,186.802368 108.915321,182.997604 96.697227,182.998871 
	C86.681656,182.999908 80.061577,189.480240 79.937790,199.516144 
	C79.859741,205.843216 79.918404,212.171982 79.915428,219.499985 
M358.984528,240.224747 
	C359.477966,235.513306 361.519287,230.305710 360.195770,226.176682 
	C354.593353,208.698730 347.990509,191.541473 341.314850,173.052505 
	C334.587006,190.458038 327.962097,206.533264 322.194763,222.910507 
	C318.642151,232.998596 322.522980,242.081314 329.844421,249.059937 
	C336.873932,255.760269 353.266113,255.962418 358.984528,240.224747 
M305.029877,166.478912 
	C305.028046,148.330109 305.107788,130.180374 304.900116,112.033913 
	C304.878998,110.189049 303.614105,107.544312 302.108307,106.653397 
	C281.552612,94.491272 260.831116,82.609726 240.220413,70.539597 
	C238.077637,69.284721 236.624878,69.482536 234.596619,70.703957 
	C223.595428,77.328888 212.469101,83.745552 201.434509,90.315613 
	C193.142960,95.252449 184.924713,100.312393 176.249374,105.575020 
	C178.612366,108.149048 180.443375,110.143562 182.184418,112.040092 
	C199.774170,101.769203 216.922272,91.692902 234.179489,81.807076 
	C235.473282,81.065926 237.918442,81.035721 239.201706,81.770081 
	C258.164459,92.621613 277.021057,103.658646 296.169617,114.807037 
	C296.169617,136.067551 296.169617,157.332489 296.169617,178.924973 
	C299.305817,178.488510 302.027740,178.109695 305.029236,177.691971 
	C305.029236,174.088959 305.029236,170.779617 305.029877,166.478912 
M257.424438,247.017319 
	C253.009445,252.983856 251.721664,259.988129 252.177109,267.024658 
	C252.544189,272.695923 252.940170,279.116547 259.639038,281.860535 
	C265.846008,284.403046 271.113434,282.678345 275.629486,277.991272 
	C275.815002,277.798706 276.233490,277.830597 276.752930,277.708801 
	C276.937653,278.783569 277.117859,279.832123 277.280243,280.776886 
	C281.568512,280.776886 285.689331,280.776886 289.691895,280.776886 
	C289.453491,277.100189 289.068085,273.646149 289.033569,270.188629 
	C288.892303,256.036591 289.031891,241.879074 288.673248,227.733597 
	C288.572144,223.746857 287.958344,219.347214 286.118103,215.922256 
	C282.663391,209.492554 274.532410,207.280624 266.558746,209.302795 
	C258.334198,211.388626 253.982269,218.559189 254.253967,230.709763 
	C258.146301,230.709763 262.036041,230.709763 266.080933,230.709763 
	C266.080933,228.581009 265.678314,226.635117 266.169586,224.949753 
	C267.036926,221.974274 268.739227,219.530060 272.494629,220.010544 
	C275.956635,220.453491 277.151581,222.556656 277.028290,225.875443 
	C276.893158,229.512482 276.997528,233.158417 276.997528,236.690430 
	C269.950470,239.118622 262.485168,239.983414 257.424438,247.017319 
M162.000717,259.499878 
	C162.000717,266.593414 162.000717,273.686981 162.000717,280.726227 
	C166.635849,280.726227 170.709000,280.726227 174.814056,280.726227 
	C174.814056,277.815582 174.853851,275.177032 174.807449,272.539978 
	C174.550262,257.923279 174.223633,243.307602 174.032928,228.690125 
	C173.980835,224.697891 177.318344,220.543533 180.212860,221.083633 
	C184.129990,221.814529 185.011169,224.954865 185.005356,228.492188 
	C184.988647,238.645172 185.000046,248.798218 185.000229,258.951233 
	C185.000366,266.214783 185.000244,273.478363 185.000244,280.747192 
	C189.265076,280.747192 193.003937,280.747192 196.989426,280.747192 
	C196.989426,260.885620 197.544952,241.253998 196.764969,221.675568 
	C196.348557,211.222961 191.897339,207.693283 183.312866,209.271500 
	C179.721039,209.931839 176.632568,213.330032 173.430008,215.408936 
	C172.403976,209.332443 171.235855,208.798615 162.000702,210.654373 
	C162.000702,226.577072 162.000702,242.538513 162.000717,259.499878 
M155.927078,220.233536 
	C152.461288,209.395187 143.154617,207.407486 132.398163,209.835190 
	C124.687485,211.575485 121.427254,218.706161 121.240837,229.016510 
	C121.019226,241.273087 121.508087,253.554916 122.058769,265.809174 
	C122.505470,275.749725 131.853729,284.207214 140.530701,282.969086 
	C153.277115,281.150299 157.620178,274.333527 155.316452,260.394836 
	C152.197006,260.394836 149.131989,260.394836 145.995499,260.394836 
	C145.995499,261.564911 146.015152,262.396729 145.992279,263.227386 
	C145.846741,268.512177 143.894211,271.030304 139.953613,271.032135 
	C136.068451,271.033905 134.083923,268.447998 134.017181,263.098480 
	C133.955490,258.155792 134.004044,253.211761 134.004044,247.884308 
	C141.552795,247.884308 148.628204,247.884308 155.998749,247.884308 
	C155.998749,238.695572 155.998749,229.901917 155.927078,220.233536 
M204.998505,161.499176 
	C204.998505,167.261032 204.998505,173.022888 204.998505,178.736084 
	C227.958176,178.736084 250.351120,178.736084 273.328766,178.736084 
	C272.964844,171.840332 272.358276,165.236542 272.333466,158.630554 
	C272.302917,150.500183 272.717590,142.366470 273.025269,134.237442 
	C273.124023,131.626907 272.721954,129.837387 270.016449,128.288681 
	C259.803864,122.442665 249.853806,116.139488 239.719742,110.152557 
	C238.743530,109.575844 236.875244,109.492264 235.923599,110.044991 
	C223.799835,117.086525 211.767990,124.286324 199.297668,131.692383 
	C200.831512,133.719696 202.185608,135.509445 203.704422,137.516876 
	C206.254227,136.098007 208.580856,134.886200 210.826141,133.538849 
	C218.519699,128.922073 226.248138,124.357872 233.825256,119.555832 
	C236.383987,117.934235 238.307449,117.827705 240.909286,119.545731 
	C245.666382,122.686897 250.560806,125.703514 255.679443,128.193451 
	C262.709290,131.613098 266.703644,136.146515 265.130676,144.615051 
	C264.352966,148.802200 264.973236,153.249756 264.968292,157.579483 
	C264.963226,161.993500 264.967133,166.407516 264.967133,170.699371 
	C247.007309,170.699371 230.101578,170.699371 212.813980,170.699371 
	C212.813980,160.990173 212.813980,151.575867 212.813980,142.287994 
	C210.012634,142.287994 207.605545,142.287994 204.998596,142.287994 
	C204.998596,148.551010 204.998596,154.525497 204.998505,161.499176 
M198.680130,210.060303 
	C198.372726,213.584686 198.065323,217.109070 197.722031,221.044891 
	C200.502411,221.044891 202.577148,221.044891 204.999451,221.044891 
	C204.999451,236.709488 204.900192,252.000076 205.029861,267.288757 
	C205.139755,280.246857 213.622818,283.023590 223.411194,281.910767 
	C224.159958,281.825684 225.291077,280.576233 225.354111,279.796051 
	C225.587326,276.909271 225.446915,273.992279 225.446915,271.146729 
	C218.147552,270.819244 217.042099,269.713806 217.007645,263.444214 
	C216.977432,257.946777 217.000793,252.449081 217.000732,246.951492 
	C217.000626,238.353882 217.000717,229.756256 217.000717,220.786682 
	C220.336792,220.786682 223.080811,220.786682 225.703781,220.786682 
	C225.703781,216.984756 225.703781,213.574844 225.703781,209.788422 
	C222.665833,209.788422 219.918274,209.788422 216.837708,209.788422 
	C216.837708,202.641724 216.837708,195.879013 216.837708,189.191711 
	C212.743286,189.594223 209.009430,189.961288 204.909439,190.364349 
	C204.909439,196.893616 204.909439,203.317169 204.909439,210.004288 
	C202.888031,210.004288 201.254059,210.004288 198.680130,210.060303 
M228.996140,259.499878 
	C228.996140,266.595032 228.996140,273.690155 228.996140,280.663055 
	C233.776886,280.663055 237.838150,280.663055 241.475708,280.663055 
	C241.475708,265.342712 241.532776,250.364365 241.455582,235.386703 
	C241.404373,225.448318 244.296768,222.587173 253.510651,223.550247 
	C253.510651,218.534424 253.510651,213.502686 253.510651,206.754135 
	C248.403030,209.893631 244.438187,212.330719 240.225784,214.919968 
	C240.076019,213.274948 239.936737,211.744995 239.804367,210.290863 
	C236.007507,210.290863 232.600266,210.290863 228.996109,210.290863 
	C228.996109,226.557053 228.996109,242.528519 228.996140,259.499878 
M209.820343,302.203217 
	C210.822906,297.268372 211.825455,292.333527 212.840515,287.337128 
	C207.799469,285.792694 208.817810,290.102570 208.137558,292.152435 
	C207.257065,294.805603 207.172165,297.722809 206.630035,301.278625 
	C203.280182,286.956116 203.280182,286.956116 199.316193,287.555328 
	C198.394104,291.405518 197.472015,295.255737 196.517624,299.240875 
	C192.478729,295.954468 197.408432,287.845062 189.066681,286.661224 
	C190.622742,293.807617 192.009567,300.176849 193.384521,306.491486 
	C195.604630,306.798920 195.604630,306.798920 201.535690,295.827667 
	C202.509109,299.704071 203.403381,303.265320 204.248352,306.630188 
	C208.095886,307.995239 209.278503,306.132996 209.820343,302.203217 
M101.006973,295.726654 
	C99.773064,287.876801 96.870544,286.208557 86.359268,287.381805 
	C86.359268,293.882019 86.359268,300.389374 86.359268,306.873932 
	C98.309807,307.326416 100.777855,305.544556 101.006973,295.726654 
M209.915741,323.675446 
	C209.615265,321.575836 209.314789,319.476257 208.750549,315.533569 
	C207.075867,317.627411 205.495636,318.692719 205.426682,319.848175 
	C205.139313,324.663086 205.138779,329.515533 205.436279,334.329285 
	C205.503006,335.408875 207.196289,336.388000 208.933289,338.273773 
	C209.334930,334.327698 209.552383,332.191284 209.802231,329.736572 
	C213.305267,332.219910 212.876129,338.814575 220.013397,336.307343 
	C213.381653,330.430817 212.177490,324.038544 219.141006,317.351593 
	C212.663940,316.080658 212.769852,321.047058 209.915741,323.675446 
M96.991051,322.399658 
	C96.140961,327.819031 92.520668,323.802826 90.283569,324.867340 
	C89.725426,317.053009 89.725426,317.053009 86.168060,317.694000 
	C86.168060,323.965485 86.168060,330.242767 86.168060,336.504761 
	C89.539757,336.749084 89.539757,336.749084 90.445374,329.240234 
	C92.483810,329.240234 94.545792,329.240234 96.580452,329.240234 
	C97.427933,336.764832 97.427933,336.764832 100.750412,336.478729 
	C100.750412,330.067169 100.750412,323.651886 100.750412,317.317322 
	C96.041260,315.939758 97.121643,319.209015 96.991051,322.399658 
M239.341934,332.154266 
	C239.341125,327.670868 239.495697,323.177979 239.223312,318.711121 
	C239.160233,317.676697 237.639023,316.731201 236.788788,315.744812 
	C236.463867,316.082672 236.138962,316.420532 235.814056,316.758392 
	C235.691727,318.552582 235.569397,320.346802 235.447571,322.133728 
	C229.047363,321.844421 226.929550,323.875977 226.985733,330.013611 
	C227.043106,336.281372 228.851120,337.249969 239.341522,336.498016 
	C239.341522,335.360779 239.341522,334.207550 239.341934,332.154266 
M191.966904,319.421478 
	C191.912094,320.554413 191.857285,321.687347 191.800827,322.854614 
	C186.909882,321.596649 184.894135,322.448029 183.369431,326.302399 
	C181.841202,330.165741 183.020523,335.478821 186.214249,336.299194 
	C189.132126,337.048737 192.394257,336.458130 195.699081,336.458130 
	C195.699081,330.318115 195.765579,324.343719 195.620407,318.374512 
	C195.600830,317.569885 194.516205,316.791199 193.924774,316.000488 
	C193.272598,316.849640 192.620407,317.698761 191.966904,319.421478 
M133.715652,293.572449 
	C131.553909,293.401245 129.392181,293.230042 127.185768,293.055298 
	C126.794868,286.003082 126.794868,286.003082 122.992172,286.753906 
	C122.992172,290.019287 122.992172,293.325500 122.992172,296.631714 
	C122.992172,300.039185 122.992172,303.446625 122.992172,306.997009 
	C125.166176,306.898346 126.722725,306.677826 128.256226,306.785522 
	C133.363968,307.144043 135.319824,305.830505 135.679626,300.764343 
	C135.833466,298.598572 134.805450,296.348846 133.715652,293.572449 
M269.202576,325.400818 
	C270.126617,328.021301 271.158875,330.609802 271.944244,333.271210 
	C272.732635,335.942810 274.835022,339.175415 269.708710,340.060730 
	C269.371307,340.118988 268.854706,342.044800 269.206360,342.515045 
	C269.749634,343.241547 271.296875,344.068604 271.841095,343.776733 
	C273.238312,343.027435 274.918365,341.907135 275.420715,340.543091 
	C277.602356,334.619354 279.403625,328.555542 281.507690,322.032440 
	C274.750854,321.991119 277.867157,328.059265 274.687531,330.409546 
	C274.091309,328.096344 273.822388,325.845856 272.882812,323.923065 
	C272.421021,322.977997 270.716736,322.640076 269.574738,322.027374 
	C269.389069,322.900879 269.203430,323.774414 269.202576,325.400818 
M265.655670,336.212799 
	C266.137726,335.383759 266.619751,334.554718 267.134705,333.669098 
	C264.401978,333.204834 262.244080,332.838226 260.086182,332.471619 
	C260.133667,331.994873 260.181152,331.518127 260.228668,331.041412 
	C262.738220,330.819366 265.247803,330.597321 269.519867,330.219330 
	C267.224731,326.978302 265.900269,324.244141 263.765198,322.505371 
	C262.873535,321.779236 259.116394,322.655609 258.648346,323.696503 
	C257.404724,326.462219 256.421509,329.832153 256.841064,332.744781 
	C257.474457,337.142059 261.184601,337.470825 265.655670,336.212799 
M120.452477,336.988922 
	C122.551956,336.834808 124.651443,336.680695 127.011162,336.507477 
	C127.011162,333.229370 127.177895,329.920654 126.962723,326.636993 
	C126.760971,323.558075 124.778267,321.725647 121.744034,322.112793 
	C120.089531,322.323914 118.592232,323.767059 116.022232,325.221497 
	C119.705132,325.772736 121.546051,326.048279 122.784157,326.233612 
	C120.243660,328.386017 117.739143,329.812805 116.456093,331.967041 
	C115.998878,332.734711 118.503563,335.266510 120.452477,336.988922 
M111.462013,333.418945 
	C110.051453,332.922516 108.640884,332.426117 107.230324,331.929688 
	C107.354721,331.470184 107.479126,331.010651 107.603523,330.551147 
	C109.993500,330.551147 112.383469,330.551147 114.884483,330.551147 
	C115.311996,326.362000 114.454811,322.960754 110.562263,322.347595 
	C108.715324,322.056641 105.605797,323.726868 104.605942,325.417847 
	C102.731949,328.587219 102.270126,332.802795 105.554779,335.335419 
	C107.231743,336.628418 110.400902,335.986115 112.895607,336.218536 
	C112.689766,335.196259 112.483917,334.173950 111.462013,333.418945 
M246.184464,328.107574 
	C247.126266,327.274078 248.068085,326.440552 248.929810,325.677917 
	C251.980042,329.243073 247.240997,335.116974 254.018112,337.754700 
	C254.018112,333.306610 254.418152,329.944061 253.857941,326.749908 
	C253.554764,325.021210 251.859680,322.612366 250.354584,322.228821 
	C247.911972,321.606293 245.109436,322.396027 242.421585,322.592316 
	C241.152542,334.787354 241.647232,336.871399 246.044968,336.375092 
	C246.044968,333.935944 246.044968,331.463501 246.184464,328.107574 
M176.993134,333.373413 
	C176.772461,336.150696 177.296036,338.033081 180.995132,336.394836 
	C180.995132,333.322296 181.392700,330.111115 180.844772,327.070282 
	C180.520447,325.270447 179.003784,322.780090 177.488159,322.304108 
	C174.964890,321.511658 172.011703,322.088104 168.995026,322.088104 
	C168.995026,326.421814 168.795074,330.421753 169.125076,334.377441 
	C169.216095,335.468353 170.887146,336.427429 171.833191,337.447021 
	C173.007950,335.140991 172.746246,333.761780 173.065002,332.533142 
	C173.644241,330.300354 171.082504,326.831329 175.331375,326.242584 
	C175.593338,326.206299 176.425934,330.288086 176.993134,333.373413 
M165.853912,325.235901 
	C164.408310,322.120758 161.954544,321.248291 158.927124,322.532745 
	C157.923096,322.958771 157.300491,324.283752 156.446472,325.263123 
	C159.247284,325.659119 161.088928,325.919525 162.930588,326.179901 
	C162.884735,326.659027 162.838882,327.138153 162.793045,327.617279 
	C161.226730,327.867310 159.162857,327.592926 158.213699,328.493408 
	C156.874954,329.763580 155.729141,331.902344 155.726212,333.671783 
	C155.724365,334.775848 157.855179,336.574249 159.252136,336.826935 
	C161.314178,337.199829 163.574890,336.474213 166.004349,336.186401 
	C166.004349,333.060211 166.004349,329.578552 165.853912,325.235901 
M240.810562,306.709167 
	C244.458923,308.027618 243.944046,305.494049 244.088455,303.314423 
	C244.264023,300.664673 242.913223,297.246582 247.753189,295.853302 
	C247.947571,298.465729 248.145798,300.673950 248.266891,302.886444 
	C248.387207,305.084351 247.682114,307.956329 252.031281,306.607178 
	C252.031281,303.213623 252.330231,299.719391 251.874832,296.326416 
	C251.707458,295.079376 249.867706,293.299286 248.596268,293.116669 
	C246.000137,292.743835 243.272095,293.289459 240.372086,293.470947 
	C240.372086,297.680511 240.372086,301.805511 240.810562,306.709167 
M111.138901,306.762573 
	C114.021469,306.762573 116.904037,306.762573 119.992882,306.762573 
	C119.992882,303.174438 120.177475,299.866272 119.946182,296.587494 
	C119.656624,292.482697 116.410004,292.701660 113.651794,293.107605 
	C112.459038,293.283112 111.459206,294.769562 110.091995,295.889709 
	C113.199356,296.264374 115.031219,296.485291 116.863083,296.706177 
	C109.725212,298.594177 108.414482,300.427063 111.138901,306.762573 
M213.040543,301.245239 
	C213.754440,306.302856 216.981949,307.806549 221.532928,306.907867 
	C222.521164,306.712738 223.264511,305.277374 223.873871,304.662323 
	C220.989456,303.802826 218.947601,303.194366 216.905731,302.585938 
	C217.042694,302.053253 217.179642,301.520538 217.316605,300.987854 
	C219.762573,300.987854 222.208542,300.987854 224.651382,300.987854 
	C224.612320,294.316895 222.170059,291.356750 217.684433,293.289612 
	C215.500763,294.230591 214.518692,297.960022 213.040543,301.245239 
M139.097229,294.517639 
	C138.874741,297.827789 137.826172,301.405212 138.774643,304.336456 
	C139.256378,305.825287 143.295807,306.342438 145.816757,306.866791 
	C146.453659,306.999237 147.435364,305.473816 148.196533,304.767822 
	C145.393204,303.835388 143.309036,303.142151 141.224854,302.448914 
	C141.362076,301.900696 141.499298,301.352448 141.636520,300.804230 
	C144.056366,300.804230 146.476196,300.804230 148.889359,300.804230 
	C148.811111,293.273254 146.431793,291.610352 139.097229,294.517639 
M265.493866,296.281464 
	C264.157135,292.080963 260.591736,292.112579 257.855042,293.470276 
	C254.154648,295.306000 253.981842,299.152039 254.871017,302.971680 
	C255.915298,307.457581 259.330505,307.332123 262.678436,306.898590 
	C263.609070,306.778076 264.374481,305.381622 264.964355,304.812866 
	C262.108093,303.807312 260.102417,303.101227 258.096741,302.395111 
	C258.243896,301.885742 258.391083,301.376373 258.538239,300.867004 
	C260.974457,300.867004 263.410645,300.867004 265.868835,300.867004 
	C265.868835,299.342285 265.868835,298.194214 265.493866,296.281464 
M163.045135,293.211090 
	C158.848267,296.102875 158.865967,300.339905 160.733948,304.094482 
	C161.544678,305.724030 164.867722,306.317902 167.172180,306.878357 
	C168.022934,307.085266 169.225723,305.844666 170.871597,304.928131 
	C167.574097,303.885040 165.526077,303.237183 163.478073,302.589325 
	C163.622772,302.125244 163.767456,301.661133 163.912155,301.197021 
	C165.054108,301.133881 166.196060,301.070953 167.337997,301.007507 
	C168.464874,300.944916 169.591736,300.881805 170.686722,300.820709 
	C171.145203,294.160370 170.146866,293.058899 163.045135,293.211090 
M141.479004,319.100220 
	C140.663010,320.877991 139.141541,322.675293 139.190201,324.429077 
	C139.270706,327.329773 140.108093,330.297302 141.131577,333.048859 
	C141.688110,334.545074 143.102951,335.954987 144.496552,336.801331 
	C145.123688,337.182312 146.645874,336.089600 147.761932,335.665558 
	C147.306091,334.802246 146.523560,333.963257 146.457031,333.070892 
	C146.274048,330.616577 145.362503,326.878937 146.570374,325.893494 
	C151.423920,321.933685 142.807495,321.994995 144.956711,319.273956 
	C144.055283,319.173706 143.153839,319.073486 141.479004,319.100220 
M150.796295,295.975922 
	C151.192520,297.905701 151.851440,299.824280 151.934631,301.767456 
	C152.163437,307.112976 152.675369,307.566010 158.495697,306.256805 
	C156.313278,302.566742 153.369019,298.812622 158.186386,295.013824 
	C158.402786,294.843201 158.090469,293.764374 157.799026,293.231964 
	C156.926346,291.637817 155.941620,290.105011 154.324966,287.430359 
	C152.775406,290.389954 151.443909,292.933075 150.796295,295.975922 
M267.387909,303.444092 
	C267.288879,304.517334 267.189880,305.590576 266.969086,307.983948 
	C270.465759,306.822083 274.422729,306.729401 275.679199,304.840424 
	C278.466309,300.650269 273.743927,298.773926 270.324005,296.213837 
	C272.888031,296.213837 274.386932,296.213837 276.879181,296.213837 
	C275.800262,294.728455 275.128418,293.108704 274.559967,293.144196 
	C272.390381,293.279755 269.324402,293.213318 268.269257,294.547699 
	C264.099335,299.821014 271.824341,300.271240 272.900055,304.037384 
	C271.046753,303.923035 269.582855,303.832733 267.387909,303.444092 
M288.632935,336.235565 
	C292.663147,332.715210 292.190369,330.918030 284.993500,325.939575 
	C287.623444,325.699341 289.191772,325.556061 290.760101,325.412811 
	C290.960754,325.043213 291.161407,324.673645 291.362061,324.304047 
	C290.102417,323.533783 288.679657,321.957275 287.619232,322.171844 
	C285.771729,322.545532 283.348999,323.612366 282.576447,325.113708 
	C280.050140,330.023132 285.994049,330.135681 288.155975,333.368591 
	C285.757996,333.368591 283.993652,333.368591 282.012238,333.368591 
	C282.212189,337.970123 285.184967,337.089691 288.632935,336.235565 
M278.544281,299.661743 
	C280.134125,300.754913 281.723969,301.848053 284.462463,303.731018 
	C281.705231,303.859436 280.542389,303.773590 279.456390,304.022705 
	C278.905548,304.149017 278.248260,304.811768 278.097290,305.358490 
	C277.980804,305.780396 278.679230,306.890961 278.843109,306.857239 
	C281.436981,306.324310 284.845795,306.447296 286.369507,304.824921 
	C288.436981,302.623596 286.707489,299.891907 284.154510,298.294373 
	C283.431061,297.841675 282.630219,297.512665 280.967072,296.674408 
	C282.552399,296.292938 283.145294,296.232208 283.666840,296.006531 
	C284.562988,295.618683 285.414642,295.127960 286.285004,294.680450 
	C285.343689,294.115479 284.449951,293.176636 283.452911,293.049805 
	C278.994232,292.482635 277.365143,294.694122 278.544281,299.661743 
M172.569962,296.549805 
	C174.224731,298.948944 175.879501,301.348083 177.541321,303.757416 
	C175.812988,303.935699 174.104568,304.111938 172.396149,304.288147 
	C172.307114,304.866791 172.218079,305.445435 172.129044,306.024078 
	C173.655014,306.356964 175.286972,307.189301 176.679626,306.893799 
	C178.346741,306.540070 180.518524,305.599792 181.233002,304.255249 
	C183.775894,299.469971 177.669373,299.174377 176.107208,295.936432 
	C177.987228,295.936432 179.403931,295.936432 182.164078,295.936432 
	C180.669785,294.426117 179.953140,293.093140 179.247070,293.098694 
	C176.824509,293.117767 173.617432,291.839386 172.569962,296.549805 
M226.977249,292.602081 
	C226.977249,297.345642 226.977249,302.089233 226.977249,306.832794 
	C227.492645,307.081055 228.008041,307.329346 228.523438,307.577606 
	C229.313858,306.499664 230.736481,305.450470 230.787018,304.338898 
	C231.026596,299.070282 231.039825,293.776733 230.758896,288.512085 
	C230.705994,287.520660 228.948959,286.620178 227.978302,285.677734 
	C227.644592,286.026184 227.310898,286.374634 226.977188,286.723053 
	C226.977188,288.362122 226.977188,290.001160 226.977249,292.602081 
M237.631653,305.967865 
	C237.666992,300.324615 237.833817,294.676605 237.629990,289.042023 
	C237.587738,287.874268 236.169022,286.756348 235.384689,285.615448 
	C234.907791,285.877594 234.430908,286.139740 233.954010,286.401855 
	C233.954010,292.520996 233.851074,298.644226 234.094696,304.753632 
	C234.122620,305.454285 236.086334,306.077728 237.631653,305.967865 
M132.090820,321.999664 
	C130.359055,323.086761 128.727036,333.088776 130.167160,335.814758 
	C130.591690,336.618347 132.342972,336.721008 132.553085,336.798920 
	C134.388138,331.429047 135.984299,326.758209 137.487534,322.359314 
	C135.965179,322.246948 134.455185,322.135498 132.090820,321.999664 
M224.630386,335.973877 
	C224.664291,332.161713 224.873734,328.337738 224.617859,324.545135 
	C224.547333,323.499603 223.088913,322.547699 222.267319,321.552856 
	C221.829498,321.833679 221.391693,322.114502 220.953888,322.395294 
	C220.953888,326.517578 220.798767,330.651184 221.097717,334.751648 
	C221.151138,335.484497 223.084076,336.080322 224.630386,335.973877 
M107.051979,299.519989 
	C107.051979,297.405396 107.051979,295.290833 107.051979,291.816162 
	C100.888214,295.494476 104.227936,300.514282 103.418159,304.252838 
	C103.245651,305.049225 104.967247,306.255890 105.816216,307.273529 
	C106.228165,306.977692 106.640106,306.681885 107.052055,306.386047 
	C107.052055,304.415771 107.052055,302.445496 107.051979,299.519989 
z"/>
<path fill="#020202" opacity="1.000000" stroke="none" 
	d="
M370.703674,308.000427 
	C370.705200,319.766632 370.705200,331.032806 370.705200,342.657227 
	C367.364197,342.657227 362.804260,342.657227 358.087341,342.657227 
	C358.023773,341.204834 357.959900,339.744415 357.865509,337.587036 
	C352.479370,341.182495 348.155273,346.498596 340.842987,344.423767 
	C333.787354,342.421753 330.582520,337.605804 329.215515,330.803314 
	C329.215515,334.635590 329.215515,338.467865 329.215515,342.651001 
	C317.866821,342.651001 306.790405,342.651001 295.354004,342.651001 
	C295.354004,289.751099 295.354004,236.578018 295.354004,183.204498 
	C299.354095,183.204498 303.302948,183.204498 307.677521,183.204498 
	C307.677521,230.858109 307.677521,278.579559 307.677521,326.648987 
	C314.821045,326.648987 321.561188,326.648987 328.543610,326.648987 
	C329.061737,322.063171 329.169281,317.106873 330.248322,312.371979 
	C332.707245,301.581818 339.823120,295.387329 350.533386,292.911377 
	C352.826233,292.381317 356.619415,290.885773 356.715302,289.609192 
	C357.112946,284.315216 357.198547,278.690094 355.736969,273.670441 
	C354.732239,270.219940 347.788147,271.233673 346.040649,275.076416 
	C344.724213,277.971375 344.230438,281.240417 343.258057,284.748566 
	C339.820496,284.748566 335.717743,284.748566 331.071320,284.748566 
	C330.664764,276.321472 331.788544,268.136597 338.962341,262.788727 
	C345.673065,257.786041 353.671814,257.487915 361.333984,260.970947 
	C368.738159,264.336639 370.620483,271.086853 370.690460,278.513062 
	C370.781464,288.174683 370.705963,297.837860 370.703674,308.000427 
M357.139099,314.519714 
	C357.139099,310.801270 357.139099,307.082825 357.139099,303.291321 
	C344.725830,305.394653 341.401733,317.537781 343.890350,326.689178 
	C344.834259,330.160217 346.611755,332.574799 350.294678,331.889069 
	C353.893280,331.219147 357.147949,329.482605 357.169861,324.945160 
	C357.185059,321.797333 357.160675,318.649261 357.139099,314.519714 
z"/>
<path fill="#010101" opacity="1.000000" stroke="none" 
	d="
M391.015381,249.991379 
	C391.015228,255.149033 391.015228,259.808594 391.015228,263.974030 
	C394.650726,262.462463 398.298645,259.948090 402.167480,259.542877 
	C410.461334,258.674103 416.744720,265.150177 416.912384,274.824463 
	C417.235382,293.464508 417.111481,312.115051 416.948212,330.759247 
	C416.896332,336.682129 412.581726,342.452759 407.351624,343.616852 
	C400.622986,345.114410 394.567261,343.873596 390.400360,336.534546 
	C389.654388,339.836945 390.494720,343.573883 385.868500,343.058014 
	C383.104797,342.749817 380.278656,343.001465 377.250916,343.001465 
	C377.250916,303.310516 377.250916,263.935120 377.250916,224.277985 
	C381.643616,224.277985 386.046417,224.277985 391.015533,224.277985 
	C391.015533,232.643585 391.015533,241.068436 391.015381,249.991379 
M399.416473,273.939423 
	C394.317108,272.212006 391.036621,274.341400 391.024811,279.495789 
	C390.992035,293.794769 391.010193,308.093903 391.016083,322.392975 
	C391.018372,327.892853 392.711395,329.998016 397.096710,329.999756 
	C400.884308,330.001221 402.988861,327.443024 403.000763,322.582916 
	C403.034973,308.616486 403.134796,294.647675 402.882294,280.685699 
	C402.843933,278.565491 401.066711,276.476776 399.416473,273.939423 
z"/>
<path fill="#010101" opacity="1.000000" stroke="none" 
	d="
M79.915588,218.999985 
	C79.918404,212.171982 79.859741,205.843216 79.937790,199.516144 
	C80.061577,189.480240 86.681656,182.999908 96.697227,182.998871 
	C108.915321,182.997604 114.739182,186.802368 116.713081,197.407623 
	C117.669449,202.545944 116.878242,208.009537 116.878242,213.663727 
	C113.492912,213.663727 110.085999,213.663727 105.997452,213.663727 
	C105.997452,210.159897 106.149757,206.400818 105.962440,202.658768 
	C105.667259,196.762024 103.117615,194.016617 98.219032,195.213684 
	C96.174446,195.713303 93.280724,198.593430 93.222710,200.467041 
	C92.599419,220.595642 92.437225,240.739105 92.238724,260.879395 
	C92.216278,263.157043 92.484283,265.510986 93.078552,267.704651 
	C94.038864,271.249573 97.092552,271.103149 99.954933,270.991180 
	C103.755470,270.842468 105.639946,268.417419 105.913025,265.029327 
	C106.244987,260.910492 105.991875,256.744537 105.991875,252.300415 
	C109.581261,252.300415 112.988159,252.300415 117.378891,252.300415 
	C116.931335,258.379761 117.066010,264.657990 115.887817,270.679260 
	C114.060799,280.016510 104.467682,283.531494 96.417603,282.841522 
	C86.227798,281.968170 80.066505,275.276215 80.011848,265.960480 
	C79.920975,250.473984 79.941696,234.986847 79.915588,218.999985 
z"/>
<path fill="#BB0605" opacity="1.000000" stroke="none" 
	d="
M358.813934,240.577225 
	C353.266113,255.962418 336.873932,255.760269 329.844421,249.059937 
	C322.522980,242.081314 318.642151,232.998596 322.194763,222.910507 
	C327.962097,206.533264 334.587006,190.458038 341.314850,173.052505 
	C347.990509,191.541473 354.593353,208.698730 360.195770,226.176682 
	C361.519287,230.305710 359.477966,235.513306 358.813934,240.577225 
z"/>
<path fill="#AF8134" opacity="1.000000" stroke="none" 
	d="
M305.029541,166.974594 
	C305.029236,170.779617 305.029236,174.088959 305.029236,177.691971 
	C302.027740,178.109695 299.305817,178.488510 296.169617,178.924973 
	C296.169617,157.332489 296.169617,136.067551 296.169617,114.807037 
	C277.021057,103.658646 258.164459,92.621613 239.201706,81.770081 
	C237.918442,81.035721 235.473282,81.065926 234.179489,81.807076 
	C216.922272,91.692902 199.774170,101.769203 182.184418,112.040092 
	C180.443375,110.143562 178.612366,108.149048 176.249374,105.575020 
	C184.924713,100.312393 193.142960,95.252449 201.434509,90.315613 
	C212.469101,83.745552 223.595428,77.328888 234.596619,70.703957 
	C236.624878,69.482536 238.077637,69.284721 240.220413,70.539597 
	C260.831116,82.609726 281.552612,94.491272 302.108307,106.653397 
	C303.614105,107.544312 304.878998,110.189049 304.900116,112.033913 
	C305.107788,130.180374 305.028046,148.330109 305.029541,166.974594 
z"/>
<path fill="#282828" opacity="1.000000" stroke="none" 
	d="
M335.003754,354.118805 
	C361.701263,354.068604 388.398804,354.018372 415.646454,354.241974 
	C416.372894,354.753662 416.604584,354.908936 416.891663,354.981537 
	C416.891663,365.438446 416.891663,375.895355 416.891663,386.993500 
	C389.276703,386.993500 361.604340,386.993500 333.506073,386.585297 
	C334.408112,384.443573 335.736023,382.710083 337.504120,381.056000 
	C339.207306,381.135406 340.470337,381.135406 342.197723,381.135406 
	C342.197723,378.237152 342.197723,375.825958 342.197723,373.439789 
	C351.863281,373.188660 352.348480,373.519531 353.471100,380.869293 
	C354.865082,380.869293 356.269409,380.869293 358.469360,380.869293 
	C357.787720,377.467651 357.186279,374.466400 356.621735,371.649231 
	C356.858307,369.255035 358.152405,366.061554 357.077393,364.411926 
	C355.863892,362.549713 352.595398,361.436615 350.085907,361.140808 
	C345.816040,360.637512 341.440826,361.028168 336.771240,360.868469 
	C335.956299,358.502045 335.480042,356.310425 335.003754,354.118805 
M391.985321,365.519409 
	C393.687256,362.079041 396.069122,362.733582 398.801788,364.211212 
	C400.554352,365.158844 402.523163,365.706543 405.365326,366.810333 
	C402.941010,360.472229 398.959412,359.637604 394.402771,360.010376 
	C390.779572,360.306702 387.445160,361.121277 387.002502,365.625244 
	C386.572144,370.004486 389.638458,371.044952 392.984436,371.977997 
	C395.731903,372.744171 398.396301,373.808411 401.295135,374.808746 
	C395.824951,382.909546 391.002258,372.644806 386.001923,375.510284 
	C389.047760,381.472412 393.494415,383.026794 399.997772,381.230011 
	C403.423523,380.283539 406.523376,378.551666 405.682617,375.121368 
	C405.102356,372.754089 402.016937,370.688568 399.619232,369.170044 
	C397.384216,367.754639 394.578705,367.240082 391.985321,365.519409 
M363.078857,380.314392 
	C368.934692,380.579315 374.789642,380.879395 380.648376,381.033875 
	C381.060791,381.044739 381.974823,379.689087 381.840546,379.471252 
	C381.434418,378.812378 380.642487,377.987183 379.972992,377.961731 
	C376.221497,377.819336 372.461792,377.893188 368.524597,377.893188 
	C368.524597,375.596283 368.524597,374.013458 368.524597,371.994934 
	C371.811676,371.994934 374.942261,372.105286 378.054840,371.917419 
	C378.833771,371.870422 379.554840,370.863892 380.302521,370.298401 
	C379.576202,369.867798 378.864929,369.098663 378.120911,369.065491 
	C374.992645,368.926056 371.854584,369.006561 368.330750,369.006561 
	C368.475342,367.244598 368.586823,365.886414 368.727234,364.175934 
	C372.559845,364.175934 376.027710,364.273163 379.482849,364.106720 
	C380.332794,364.065765 381.141327,363.164948 381.968903,362.659424 
	C381.191833,362.107239 380.426575,361.097107 379.635742,361.076630 
	C374.205566,360.936188 368.769958,361.002869 363.012177,361.002869 
	C363.012177,367.439301 363.012177,373.389313 363.078857,380.314392 
z"/>
<path fill="#030303" opacity="1.000000" stroke="none" 
	d="
M257.685791,246.756683 
	C262.485168,239.983414 269.950470,239.118622 276.997528,236.690430 
	C276.997528,233.158417 276.893158,229.512482 277.028290,225.875443 
	C277.151581,222.556656 275.956635,220.453491 272.494629,220.010544 
	C268.739227,219.530060 267.036926,221.974274 266.169586,224.949753 
	C265.678314,226.635117 266.080933,228.581009 266.080933,230.709763 
	C262.036041,230.709763 258.146301,230.709763 254.253967,230.709763 
	C253.982269,218.559189 258.334198,211.388626 266.558746,209.302795 
	C274.532410,207.280624 282.663391,209.492554 286.118103,215.922256 
	C287.958344,219.347214 288.572144,223.746857 288.673248,227.733597 
	C289.031891,241.879074 288.892303,256.036591 289.033569,270.188629 
	C289.068085,273.646149 289.453491,277.100189 289.691895,280.776886 
	C285.689331,280.776886 281.568512,280.776886 277.280243,280.776886 
	C277.117859,279.832123 276.937653,278.783569 276.752930,277.708801 
	C276.233490,277.830597 275.815002,277.798706 275.629486,277.991272 
	C271.113434,282.678345 265.846008,284.403046 259.639038,281.860535 
	C252.940170,279.116547 252.544189,272.695923 252.177109,267.024658 
	C251.721664,259.988129 253.009445,252.983856 257.685791,246.756683 
M269.615936,250.017502 
	C264.848419,254.363327 264.643066,260.046265 264.999359,265.876465 
	C265.204529,269.234314 267.029175,272.374756 270.227142,271.689026 
	C272.780396,271.141510 276.340210,268.151337 276.686157,265.832550 
	C277.594971,259.741669 276.993103,253.425369 276.993103,246.457779 
	C274.301575,247.778625 272.315582,248.753250 269.615936,250.017502 
z"/>
<path fill="#010101" opacity="1.000000" stroke="none" 
	d="
M162.000702,258.999939 
	C162.000702,242.538513 162.000702,226.577072 162.000702,210.654373 
	C171.235855,208.798615 172.403976,209.332443 173.430008,215.408936 
	C176.632568,213.330032 179.721039,209.931839 183.312866,209.271500 
	C191.897339,207.693283 196.348557,211.222961 196.764969,221.675568 
	C197.544952,241.253998 196.989426,260.885620 196.989426,280.747192 
	C193.003937,280.747192 189.265076,280.747192 185.000244,280.747192 
	C185.000244,273.478363 185.000366,266.214783 185.000229,258.951233 
	C185.000046,248.798218 184.988647,238.645172 185.005356,228.492188 
	C185.011169,224.954865 184.129990,221.814529 180.212860,221.083633 
	C177.318344,220.543533 173.980835,224.697891 174.032928,228.690125 
	C174.223633,243.307602 174.550262,257.923279 174.807449,272.539978 
	C174.853851,275.177032 174.814056,277.815582 174.814056,280.726227 
	C170.709000,280.726227 166.635849,280.726227 162.000717,280.726227 
	C162.000717,273.686981 162.000717,266.593414 162.000702,258.999939 
z"/>
<path fill="#020202" opacity="1.000000" stroke="none" 
	d="
M155.962921,220.670898 
	C155.998749,229.901917 155.998749,238.695572 155.998749,247.884308 
	C148.628204,247.884308 141.552795,247.884308 134.004044,247.884308 
	C134.004044,253.211761 133.955490,258.155792 134.017181,263.098480 
	C134.083923,268.447998 136.068451,271.033905 139.953613,271.032135 
	C143.894211,271.030304 145.846741,268.512177 145.992279,263.227386 
	C146.015152,262.396729 145.995499,261.564911 145.995499,260.394836 
	C149.131989,260.394836 152.197006,260.394836 155.316452,260.394836 
	C157.620178,274.333527 153.277115,281.150299 140.530701,282.969086 
	C131.853729,284.207214 122.505470,275.749725 122.058769,265.809174 
	C121.508087,253.554916 121.019226,241.273087 121.240837,229.016510 
	C121.427254,218.706161 124.687485,211.575485 132.398163,209.835190 
	C143.154617,207.407486 152.461288,209.395187 155.962921,220.670898 
M145.851105,226.883240 
	C145.132996,223.665710 144.753693,220.049545 140.278030,220.032318 
	C135.749786,220.014908 134.160019,223.216110 133.641113,227.010834 
	C133.158920,230.536972 133.073853,234.117416 132.805740,237.785980 
	C137.234222,237.785980 140.992493,237.785980 144.717377,237.785980 
	C145.130936,234.287903 145.518539,231.009415 145.851105,226.883240 
z"/>
<path fill="#020202" opacity="1.000000" stroke="none" 
	d="
M204.998550,160.999588 
	C204.998596,154.525497 204.998596,148.551010 204.998596,142.287994 
	C207.605545,142.287994 210.012634,142.287994 212.813980,142.287994 
	C212.813980,151.575867 212.813980,160.990173 212.813980,170.699371 
	C230.101578,170.699371 247.007309,170.699371 264.967133,170.699371 
	C264.967133,166.407516 264.963226,161.993500 264.968292,157.579483 
	C264.973236,153.249756 264.352966,148.802200 265.130676,144.615051 
	C266.703644,136.146515 262.709290,131.613098 255.679443,128.193451 
	C250.560806,125.703514 245.666382,122.686897 240.909286,119.545731 
	C238.307449,117.827705 236.383987,117.934235 233.825256,119.555832 
	C226.248138,124.357872 218.519699,128.922073 210.826141,133.538849 
	C208.580856,134.886200 206.254227,136.098007 203.704422,137.516876 
	C202.185608,135.509445 200.831512,133.719696 199.297668,131.692383 
	C211.767990,124.286324 223.799835,117.086525 235.923599,110.044991 
	C236.875244,109.492264 238.743530,109.575844 239.719742,110.152557 
	C249.853806,116.139488 259.803864,122.442665 270.016449,128.288681 
	C272.721954,129.837387 273.124023,131.626907 273.025269,134.237442 
	C272.717590,142.366470 272.302917,150.500183 272.333466,158.630554 
	C272.358276,165.236542 272.964844,171.840332 273.328766,178.736084 
	C250.351120,178.736084 227.958176,178.736084 204.998505,178.736084 
	C204.998505,173.022888 204.998505,167.261032 204.998550,160.999588 
z"/>
<path fill="#AF8134" opacity="1.000000" stroke="none" 
	d="
M288.860107,168.936325 
	C288.860107,172.067169 288.860107,175.198013 288.860107,178.645065 
	C287.722168,178.729034 286.775665,178.854858 285.828491,178.859772 
	C279.169373,178.894363 279.148315,178.880203 279.122711,172.320404 
	C279.065491,157.657150 279.114349,142.992249 278.857849,128.332596 
	C278.827240,126.583397 277.622681,124.125664 276.193054,123.244957 
	C264.407898,115.984695 252.401993,109.083733 240.563675,101.907799 
	C238.334320,100.556450 236.754852,100.478203 234.482727,101.851418 
	C221.118759,109.928192 207.645554,117.824203 193.888672,125.970901 
	C191.878662,123.772110 189.907288,121.615578 187.620087,119.113556 
	C198.566727,112.624809 209.166779,106.375343 219.730392,100.064857 
	C224.683029,97.106255 229.616974,94.109543 234.455765,90.970398 
	C236.582611,89.590607 238.213303,89.477448 240.525391,90.878815 
	C256.155273,100.352219 271.899658,109.636719 287.825928,119.732330 
	C288.030151,134.893036 287.986145,149.303833 288.038757,163.714294 
	C288.045135,165.455948 288.573608,167.195694 288.860107,168.936325 
z"/>
<path fill="#010101" opacity="1.000000" stroke="none" 
	d="
M199.150116,210.032288 
	C201.254059,210.004288 202.888031,210.004288 204.909439,210.004288 
	C204.909439,203.317169 204.909439,196.893616 204.909439,190.364349 
	C209.009430,189.961288 212.743286,189.594223 216.837708,189.191711 
	C216.837708,195.879013 216.837708,202.641724 216.837708,209.788422 
	C219.918274,209.788422 222.665833,209.788422 225.703781,209.788422 
	C225.703781,213.574844 225.703781,216.984756 225.703781,220.786682 
	C223.080811,220.786682 220.336792,220.786682 217.000717,220.786682 
	C217.000717,229.756256 217.000626,238.353882 217.000732,246.951492 
	C217.000793,252.449081 216.977432,257.946777 217.007645,263.444214 
	C217.042099,269.713806 218.147552,270.819244 225.446915,271.146729 
	C225.446915,273.992279 225.587326,276.909271 225.354111,279.796051 
	C225.291077,280.576233 224.159958,281.825684 223.411194,281.910767 
	C213.622818,283.023590 205.139755,280.246857 205.029861,267.288757 
	C204.900192,252.000076 204.999451,236.709488 204.999451,221.044891 
	C202.577148,221.044891 200.502411,221.044891 197.722031,221.044891 
	C198.065323,217.109070 198.372726,213.584686 199.150116,210.032288 
z"/>
<path fill="#030303" opacity="1.000000" stroke="none" 
	d="
M228.996124,258.999939 
	C228.996109,242.528519 228.996109,226.557053 228.996109,210.290863 
	C232.600266,210.290863 236.007507,210.290863 239.804367,210.290863 
	C239.936737,211.744995 240.076019,213.274948 240.225784,214.919968 
	C244.438187,212.330719 248.403030,209.893631 253.510651,206.754135 
	C253.510651,213.502686 253.510651,218.534424 253.510651,223.550247 
	C244.296768,222.587173 241.404373,225.448318 241.455582,235.386703 
	C241.532776,250.364365 241.475708,265.342712 241.475708,280.663055 
	C237.838150,280.663055 233.776886,280.663055 228.996140,280.663055 
	C228.996140,273.690155 228.996140,266.595032 228.996124,258.999939 
z"/>
<path fill="#404041" opacity="1.000000" stroke="none" 
	d="
M264.017731,354.145569 
	C272.371796,354.087982 280.725830,354.030396 289.531433,354.409546 
	C289.324951,356.852814 288.666992,358.859344 287.575623,360.938019 
	C286.060181,361.579468 284.978088,362.148743 283.895966,362.717987 
	C286.107574,363.505188 288.319153,364.292358 291.000000,365.246552 
	C291.000000,370.210571 291.000000,375.605377 290.810608,381.276550 
	C289.750732,383.319580 288.880219,385.086212 288.009705,386.852875 
	C277.322418,386.886322 266.635132,386.919769 255.480682,386.444885 
	C255.013031,383.995453 254.672852,381.977234 255.091721,380.131256 
	C255.719635,377.364044 256.880371,374.717773 257.875916,372.474213 
	C257.937317,375.554871 257.937317,378.181366 257.937317,381.188812 
	C259.780121,381.046387 261.143616,380.941010 262.953003,380.801178 
	C262.953003,376.595459 262.953003,372.745667 262.953003,368.898346 
	C268.815979,372.139282 268.699677,381.867401 278.062897,381.138428 
	C278.062897,375.100006 278.206909,369.302399 277.928589,363.525116 
	C277.879181,362.500183 276.072418,361.559937 274.359863,359.874664 
	C273.993744,365.339264 273.743073,369.080872 273.492371,372.822479 
	C271.404053,371.775970 270.655212,370.520081 269.710052,369.435211 
	C267.190125,366.542786 264.585754,363.723907 262.046906,360.523865 
	C262.725128,358.163147 263.371429,356.154358 264.017731,354.145569 
z"/>
<path fill="#2D2D2E" opacity="1.000000" stroke="none" 
	d="
M337.063934,380.976593 
	C335.736023,382.710083 334.408112,384.443573 333.042542,386.514038 
	C325.648041,386.897949 318.291229,386.944885 310.474030,386.552032 
	C310.698425,384.007690 311.383148,381.903137 312.431458,379.945618 
	C314.470306,380.698242 316.102203,381.603760 317.828918,381.853394 
	C323.089539,382.614014 330.469421,380.829498 330.910767,375.431580 
	C331.297302,370.704163 330.991425,365.920135 330.991425,360.920685 
	C328.998169,361.057831 327.596863,361.154236 326.340546,361.240662 
	C325.991455,365.512970 325.176788,369.444855 325.477753,373.289368 
	C325.876862,378.388916 322.747131,378.001038 319.558350,377.979126 
	C315.827362,377.953522 314.858643,375.736694 314.983917,372.409912 
	C315.125763,368.643433 315.016663,364.867493 315.016663,360.917664 
	C312.985901,360.917664 311.494232,360.917664 310.043060,360.567413 
	C311.057587,358.183380 312.031616,356.149628 313.005676,354.115845 
	C320.029114,354.068481 327.052521,354.021118 334.539856,354.046295 
	C335.480042,356.310425 335.956299,358.502045 336.722473,361.331787 
	C337.029572,368.305481 337.046753,374.641052 337.063934,380.976593 
z"/>
<path fill="#353536" opacity="1.000000" stroke="none" 
	d="
M312.541656,354.043060 
	C312.031616,356.149628 311.057587,358.183380 309.695862,360.822662 
	C309.281189,363.235352 308.970856,365.093231 309.283142,366.839783 
	C310.060303,371.186401 311.121033,375.482330 312.067932,379.798615 
	C311.383148,381.903137 310.698425,384.007690 310.010376,386.483032 
	C302.983795,386.898010 295.960510,386.942200 288.473450,386.919647 
	C288.880219,385.086212 289.750732,383.319580 291.244995,381.376129 
	C293.438324,381.109192 295.007874,381.019073 296.983215,380.905640 
	C296.983215,375.228485 296.983215,370.009094 296.983215,364.884125 
	C303.503754,363.825836 303.503754,363.825836 303.291168,360.865845 
	C298.216858,360.865845 293.112946,360.865845 288.009003,360.865845 
	C288.666992,358.859344 289.324951,356.852814 289.995483,354.483124 
	C297.364532,354.070038 304.721100,354.020172 312.541656,354.043060 
z"/>
<path fill="#525253" opacity="1.000000" stroke="none" 
	d="
M257.814545,372.020050 
	C256.880371,374.717773 255.719635,377.364044 255.091721,380.131256 
	C254.672852,381.977234 255.013031,383.995453 255.017303,386.380554 
	C249.663467,386.869904 244.305817,386.915222 238.476868,386.442627 
	C237.950470,384.400818 237.895401,382.876892 238.267731,381.290466 
	C242.356842,381.200989 246.027969,381.312378 249.674637,381.064301 
	C250.795609,380.988037 251.849701,379.928802 252.934418,379.319672 
	C251.903214,378.838623 250.890396,377.996399 249.837418,377.942780 
	C246.377441,377.766632 242.902893,377.876526 239.041321,377.876526 
	C238.909851,367.449768 247.604889,374.619781 251.181320,370.679199 
	C250.504135,370.178009 249.764114,369.197723 248.910141,369.085602 
	C246.945709,368.827728 244.922958,368.920959 242.929092,369.001282 
	C239.568802,369.136719 238.417679,367.692627 239.468353,364.185669 
	C241.981735,364.185669 244.458237,364.188538 246.934723,364.184998 
	C251.303665,364.178802 251.303665,364.177185 251.434387,360.891693 
	C247.618973,360.891693 243.817184,360.891693 240.004303,360.507324 
	C240.336914,358.140106 240.680588,356.157227 241.024292,354.174377 
	C248.378769,354.117126 255.733231,354.059906 263.552734,354.074097 
	C263.371429,356.154358 262.725128,358.163147 261.613434,360.599060 
	C259.115479,360.805817 257.766235,361.125580 257.947083,363.764587 
	C258.134521,366.500519 257.877289,369.266968 257.814545,372.020050 
z"/>
<path fill="#F9F8F8" opacity="1.000000" stroke="none" 
	d="
M108.006607,386.995117 
	C96.746643,387.018463 96.857216,387.009460 95.950485,375.882050 
	C95.378288,368.859955 94.415497,361.869690 93.530701,354.000610 
	C97.291077,354.000610 101.184601,354.000610 105.549515,354.425751 
	C106.682808,365.565643 107.344704,376.280365 108.006607,386.995117 
z"/>
<path fill="#656666" opacity="1.000000" stroke="none" 
	d="
M240.565735,354.092163 
	C240.680588,356.157227 240.336914,358.140106 239.564606,360.582397 
	C237.541321,361.041870 235.946640,361.041870 234.242630,361.041870 
	C234.242630,367.965546 234.242630,374.347595 234.242630,380.804993 
	C235.583710,381.009247 236.712021,381.181122 237.840332,381.352966 
	C237.895401,382.876892 237.950470,384.400818 238.014191,386.381836 
	C233.328552,386.879395 228.634293,386.919800 223.467239,386.538391 
	C222.301437,384.351715 221.608414,382.586884 220.993591,380.468506 
	C223.640976,373.888123 226.210175,367.661224 228.857986,361.243805 
	C227.291840,361.090210 226.152374,360.978455 225.060913,360.489624 
	C225.591904,358.121857 226.074890,356.131073 226.557877,354.140320 
	C231.074310,354.096863 235.590759,354.053406 240.565735,354.092163 
z"/>
<path fill="#EEEEEE" opacity="1.000000" stroke="none" 
	d="
M108.460358,386.995361 
	C107.344704,376.280365 106.682808,365.565643 106.014038,354.428497 
	C109.038658,354.005798 112.070152,354.005493 115.562363,354.434082 
	C116.685692,365.568054 117.348297,376.273132 118.010895,386.978210 
	C114.978630,386.984009 111.946373,386.989807 108.460358,386.995361 
z"/>
<path fill="#7D7F7F" opacity="1.000000" stroke="none" 
	d="
M205.015961,354.131744 
	C208.379456,354.086334 211.742966,354.040955 215.548340,354.428101 
	C214.636932,356.962402 213.283646,359.064117 211.531189,361.108704 
	C209.836105,361.126343 208.540146,361.201111 206.650330,361.310211 
	C209.585648,368.113129 212.353287,374.527466 214.820312,381.183105 
	C214.351929,383.228394 214.184158,385.032349 214.016388,386.836334 
	C210.321915,386.874786 206.627426,386.913239 202.470627,386.452026 
	C200.699631,375.127075 202.187149,364.566010 205.015961,354.131744 
z"/>
<path fill="#E6E6E7" opacity="1.000000" stroke="none" 
	d="
M118.454712,386.984741 
	C117.348297,376.273132 116.685692,365.568054 116.017014,354.442261 
	C118.713203,354.018433 121.415474,354.015259 124.616699,354.437683 
	C125.410538,356.817627 125.938354,358.769348 125.960205,360.726746 
	C126.057785,369.469971 126.010956,378.214783 126.016281,386.959045 
	C123.643700,386.969757 121.271118,386.980499 118.454712,386.984741 
z"/>
<path fill="#A3A4A5" opacity="1.000000" stroke="none" 
	d="
M171.018646,354.134308 
	C173.389771,354.092499 175.760895,354.050690 178.568039,354.461182 
	C179.002670,358.675751 179.109360,362.441803 178.976395,366.199432 
	C178.732880,373.081024 178.347855,379.957611 178.021820,386.836304 
	C175.649353,386.874359 173.276901,386.912384 170.455566,386.448425 
	C170.344025,375.342407 170.681335,364.738373 171.018646,354.134308 
z"/>
<path fill="#898B8B" opacity="1.000000" stroke="none" 
	d="
M204.569443,354.063416 
	C202.187149,364.566010 200.699631,375.127075 202.014313,386.391907 
	C199.316391,386.872589 196.612457,386.913757 193.466919,386.504395 
	C194.021210,375.414581 195.017120,364.775330 196.013031,354.136047 
	C198.716324,354.089050 201.419632,354.042084 204.569443,354.063416 
z"/>
<path fill="#EE242B" opacity="1.000000" stroke="none" 
	d="
M209.646057,302.591858 
	C209.278503,306.132996 208.095886,307.995239 204.248352,306.630188 
	C203.403381,303.265320 202.509109,299.704071 201.535690,295.827667 
	C195.604630,306.798920 195.604630,306.798920 193.384521,306.491486 
	C192.009567,300.176849 190.622742,293.807617 189.066681,286.661224 
	C197.408432,287.845062 192.478729,295.954468 196.517624,299.240875 
	C197.472015,295.255737 198.394104,291.405518 199.316010,287.555298 
	C203.280182,286.956116 203.280182,286.956116 206.630035,301.278625 
	C207.172165,297.722809 207.257065,294.805603 208.137558,292.152435 
	C208.817810,290.102570 207.799469,285.792694 212.840515,287.337128 
	C211.825455,292.333527 210.822906,297.268372 209.646057,302.591858 
z"/>
<path fill="#9A9B9B" opacity="1.000000" stroke="none" 
	d="
M178.462433,386.893250 
	C178.347855,379.957611 178.732880,373.081024 178.976395,366.199432 
	C179.109360,362.441803 179.002670,358.675751 179.009232,354.519836 
	C181.715881,354.087463 184.417374,354.048737 187.560699,354.516174 
	C187.339554,365.627258 186.676559,376.232269 186.013580,386.837250 
	C183.643402,386.874908 181.273239,386.912567 178.462433,386.893250 
z"/>
<path fill="#ACAEAF" opacity="1.000000" stroke="none" 
	d="
M170.576996,354.074829 
	C170.681335,364.738373 170.344025,375.342407 170.013947,386.396362 
	C167.648621,386.881256 165.276062,386.916290 162.466675,386.493439 
	C162.353424,379.954346 162.764908,373.876129 162.971649,367.790955 
	C163.126083,363.245911 163.016174,358.691895 163.023956,354.141876 
	C165.394424,354.099701 167.764893,354.057495 170.576996,354.074829 
z"/>
<path fill="#929394" opacity="1.000000" stroke="none" 
	d="
M186.448151,386.895569 
	C186.676559,376.232269 187.339554,365.627258 188.007248,354.579529 
	C190.384903,354.094360 192.757843,354.051941 195.571915,354.072784 
	C195.017120,364.775330 194.021210,375.414581 193.020386,386.445496 
	C190.971237,386.876007 188.926987,386.914948 186.448151,386.895569 
z"/>
<path fill="#DDDDDE" opacity="1.000000" stroke="none" 
	d="
M126.453194,386.972168 
	C126.010956,378.214783 126.057785,369.469971 125.960205,360.726746 
	C125.938354,358.769348 125.410538,356.817627 125.067474,354.453094 
	C127.390701,354.034851 129.762115,354.026794 132.621185,354.432190 
	C133.388565,356.282135 133.938705,357.725098 133.904129,359.153961 
	C133.680115,368.416656 133.328796,377.676270 133.019196,386.936890 
	C130.976166,386.953033 128.933136,386.969147 126.453194,386.972168 
z"/>
<path fill="#D4D4D5" opacity="1.000000" stroke="none" 
	d="
M133.446838,386.957764 
	C133.328796,377.676270 133.680115,368.416656 133.904129,359.153961 
	C133.938705,357.725098 133.388565,356.282135 133.065826,354.455170 
	C135.392120,354.051208 137.761429,354.037750 140.567810,354.485474 
	C140.342773,365.602661 139.680649,376.258636 139.018539,386.914551 
	C137.303864,386.935944 135.589172,386.957306 133.446838,386.957764 
z"/>
<path fill="#CCCDCD" opacity="1.000000" stroke="none" 
	d="
M139.445953,386.943329 
	C139.680649,376.258636 140.342773,365.602661 141.011688,354.515961 
	C142.408127,354.066589 143.797775,354.047974 145.605576,354.461365 
	C146.274078,356.670593 146.819519,358.463593 146.725098,360.222290 
	C146.247360,369.120087 145.603302,378.008942 145.017548,386.900940 
	C143.302826,386.924652 141.588104,386.948364 139.445953,386.943329 
z"/>
<path fill="#C4C5C6" opacity="1.000000" stroke="none" 
	d="
M145.444855,386.935577 
	C145.603302,378.008942 146.247360,369.120087 146.725098,360.222290 
	C146.819519,358.463593 146.274078,356.670593 146.021271,354.499207 
	C147.409943,354.081512 148.801056,354.058044 150.659332,354.481384 
	C151.090164,365.581604 151.053833,376.235046 151.017487,386.888489 
	C149.302383,386.915741 147.587265,386.942993 145.444855,386.935577 
z"/>
<path fill="#ED2028" opacity="1.000000" stroke="none" 
	d="
M101.007187,296.151764 
	C100.777855,305.544556 98.309807,307.326416 86.359268,306.873932 
	C86.359268,300.389374 86.359268,293.882019 86.359268,287.381805 
	C96.870544,286.208557 99.773064,287.876801 101.007187,296.151764 
M89.998070,299.240692 
	C90.073029,300.672821 90.147987,302.104980 90.223221,303.542480 
	C95.685226,303.133148 97.676476,300.941589 96.956421,296.013824 
	C96.412369,292.290527 94.398277,290.233215 89.998062,291.377167 
	C89.998062,293.758636 89.998062,296.045380 89.998070,299.240692 
z"/>
<path fill="#EE2C33" opacity="1.000000" stroke="none" 
	d="
M210.314453,323.604675 
	C212.769852,321.047058 212.663940,316.080658 219.141006,317.351593 
	C212.177490,324.038544 213.381653,330.430817 220.013397,336.307343 
	C212.876129,338.814575 213.305267,332.219910 209.802231,329.736572 
	C209.552383,332.191284 209.334930,334.327698 208.933289,338.273773 
	C207.196289,336.388000 205.503006,335.408875 205.436279,334.329285 
	C205.138779,329.515533 205.139313,324.663086 205.426682,319.848175 
	C205.495636,318.692719 207.075867,317.627411 208.750549,315.533569 
	C209.314789,319.476257 209.615265,321.575836 210.314453,323.604675 
z"/>
<path fill="#B5B6B7" opacity="1.000000" stroke="none" 
	d="
M162.597076,354.084503 
	C163.016174,358.691895 163.126083,363.245911 162.971649,367.790955 
	C162.764908,373.876129 162.353424,379.954346 162.025101,386.446045 
	C160.305222,386.890015 158.590088,386.923462 156.500763,386.510803 
	C156.423248,375.419312 156.719910,364.773895 157.016571,354.128510 
	C158.734451,354.094727 160.452316,354.060913 162.597076,354.084503 
z"/>
<path fill="#ED2028" opacity="1.000000" stroke="none" 
	d="
M96.991714,321.939270 
	C97.121643,319.209015 96.041260,315.939758 100.750412,317.317322 
	C100.750412,323.651886 100.750412,330.067169 100.750412,336.478729 
	C97.427933,336.764832 97.427933,336.764832 96.580452,329.240234 
	C94.545792,329.240234 92.483810,329.240234 90.445374,329.240234 
	C89.539757,336.749084 89.539757,336.749084 86.168060,336.504761 
	C86.168060,330.242767 86.168060,323.965485 86.168060,317.694000 
	C89.725426,317.053009 89.725426,317.053009 90.283569,324.867340 
	C92.520668,323.802826 96.140961,327.819031 96.991714,321.939270 
z"/>
<path fill="#EE242B" opacity="1.000000" stroke="none" 
	d="
M239.341736,332.604279 
	C239.341522,334.207550 239.341522,335.360779 239.341522,336.498016 
	C228.851120,337.249969 227.043106,336.281372 226.985733,330.013611 
	C226.929550,323.875977 229.047363,321.844421 235.447571,322.133728 
	C235.569397,320.346802 235.691727,318.552582 235.814056,316.758392 
	C236.138962,316.420532 236.463867,316.082672 236.788788,315.744812 
	C237.639023,316.731201 239.160233,317.676697 239.223312,318.711121 
	C239.495697,323.177979 239.341125,327.670868 239.341736,332.604279 
M234.841019,326.414978 
	C227.751785,325.183502 232.210266,330.329498 230.967697,332.549866 
	C235.775497,332.906250 236.318207,332.117279 234.841019,326.414978 
z"/>
<path fill="#BCBDBE" opacity="1.000000" stroke="none" 
	d="
M156.589966,354.077423 
	C156.719910,364.773895 156.423248,375.419312 156.074249,386.467163 
	C154.630585,386.903961 153.239243,386.938263 151.432709,386.930542 
	C151.053833,376.235046 151.090164,365.581604 151.075043,354.524445 
	C152.736847,354.089264 154.450104,354.057800 156.589966,354.077423 
z"/>
<path fill="#EE2C33" opacity="1.000000" stroke="none" 
	d="
M191.967560,318.984680 
	C192.620407,317.698761 193.272598,316.849640 193.924774,316.000488 
	C194.516205,316.791199 195.600830,317.569885 195.620407,318.374512 
	C195.765579,324.343719 195.699081,330.318115 195.699081,336.458130 
	C192.394257,336.458130 189.132126,337.048737 186.214249,336.299194 
	C183.020523,335.478821 181.841202,330.165741 183.369431,326.302399 
	C184.894135,322.448029 186.909882,321.596649 191.800827,322.854614 
	C191.857285,321.687347 191.912094,320.554413 191.967560,318.984680 
M187.694244,332.712769 
	C190.422363,333.657013 192.067459,332.489380 191.827942,329.815186 
	C191.707016,328.464966 190.120422,327.246033 189.196518,325.967743 
	C188.473160,327.506622 187.702744,329.026276 187.059219,330.597870 
	C186.896484,330.995270 187.138580,331.558411 187.694244,332.712769 
z"/>
<path fill="#727273" opacity="1.000000" stroke="none" 
	d="
M211.930344,361.165863 
	C213.283646,359.064117 214.636932,356.962402 216.002289,354.499298 
	C219.294510,354.089935 222.574661,354.041931 226.206345,354.067139 
	C226.074890,356.131073 225.591904,358.121857 224.717331,360.610718 
	C222.094437,365.954132 219.863129,370.799469 217.479218,375.976166 
	C215.493042,370.674927 213.711685,365.920380 211.930344,361.165863 
z"/>
<path fill="#ED2028" opacity="1.000000" stroke="none" 
	d="
M134.015045,293.854858 
	C134.805450,296.348846 135.833466,298.598572 135.679626,300.764343 
	C135.319824,305.830505 133.363968,307.144043 128.256226,306.785522 
	C126.722725,306.677826 125.166176,306.898346 122.992172,306.997009 
	C122.992172,303.446625 122.992172,300.039185 122.992172,296.631714 
	C122.992172,293.325500 122.992172,290.019287 122.992172,286.753906 
	C126.794868,286.003082 126.794868,286.003082 127.185768,293.055298 
	C129.392181,293.230042 131.553909,293.401245 134.015045,293.854858 
M130.210129,296.152618 
	C125.647682,296.045685 127.128822,299.497192 127.162598,301.777069 
	C127.172997,302.479034 128.836670,303.156494 129.743301,303.845184 
	C130.452484,301.998749 131.250122,300.178192 131.803391,298.286163 
	C131.928391,297.858673 131.203094,297.182556 130.210129,296.152618 
z"/>
<path fill="#EE272F" opacity="1.000000" stroke="none" 
	d="
M269.110168,325.024353 
	C269.203430,323.774414 269.389069,322.900879 269.574738,322.027374 
	C270.716736,322.640076 272.421021,322.977997 272.882812,323.923065 
	C273.822388,325.845856 274.091309,328.096344 274.687531,330.409546 
	C277.867157,328.059265 274.750854,321.991119 281.507690,322.032440 
	C279.403625,328.555542 277.602356,334.619354 275.420715,340.543091 
	C274.918365,341.907135 273.238312,343.027435 271.841095,343.776733 
	C271.296875,344.068604 269.749634,343.241547 269.206360,342.515045 
	C268.854706,342.044800 269.371307,340.118988 269.708710,340.060730 
	C274.835022,339.175415 272.732635,335.942810 271.944244,333.271210 
	C271.158875,330.609802 270.126617,328.021301 269.110168,325.024353 
z"/>
<path fill="#EE2C33" opacity="1.000000" stroke="none" 
	d="
M265.297058,336.411133 
	C261.184601,337.470825 257.474457,337.142059 256.841064,332.744781 
	C256.421509,329.832153 257.404724,326.462219 258.648346,323.696503 
	C259.116394,322.655609 262.873535,321.779236 263.765198,322.505371 
	C265.900269,324.244141 267.224731,326.978302 269.519867,330.219330 
	C265.247803,330.597321 262.738220,330.819366 260.228668,331.041412 
	C260.181152,331.518127 260.133667,331.994873 260.086182,332.471619 
	C262.244080,332.838226 264.401978,333.204834 267.134705,333.669098 
	C266.619751,334.554718 266.137726,335.383759 265.297058,336.411133 
z"/>
<path fill="#EE272F" opacity="1.000000" stroke="none" 
	d="
M120.054352,336.990967 
	C118.503563,335.266510 115.998878,332.734711 116.456093,331.967041 
	C117.739143,329.812805 120.243660,328.386017 122.784157,326.233612 
	C121.546051,326.048279 119.705132,325.772736 116.022232,325.221497 
	C118.592232,323.767059 120.089531,322.323914 121.744034,322.112793 
	C124.778267,321.725647 126.760971,323.558075 126.962723,326.636993 
	C127.177895,329.920654 127.011162,333.229370 127.011162,336.507477 
	C124.651443,336.680695 122.551956,336.834808 120.054352,336.990967 
z"/>
<path fill="#EE2C33" opacity="1.000000" stroke="none" 
	d="
M111.870041,333.285309 
	C112.483917,334.173950 112.689766,335.196259 112.895607,336.218536 
	C110.400902,335.986115 107.231743,336.628418 105.554779,335.335419 
	C102.270126,332.802795 102.731949,328.587219 104.605942,325.417847 
	C105.605797,323.726868 108.715324,322.056641 110.562263,322.347595 
	C114.454811,322.960754 115.311996,326.362000 114.884483,330.551147 
	C112.383469,330.551147 109.993500,330.551147 107.603523,330.551147 
	C107.479126,331.010651 107.354721,331.470184 107.230324,331.929688 
	C108.640884,332.426117 110.051453,332.922516 111.870041,333.285309 
z"/>
<path fill="#EE272F" opacity="1.000000" stroke="none" 
	d="
M246.114716,328.549316 
	C246.044968,331.463501 246.044968,333.935944 246.044968,336.375092 
	C241.647232,336.871399 241.152542,334.787354 242.421585,322.592316 
	C245.109436,322.396027 247.911972,321.606293 250.354584,322.228821 
	C251.859680,322.612366 253.554764,325.021210 253.857941,326.749908 
	C254.418152,329.944061 254.018112,333.306610 254.018112,337.754700 
	C247.240997,335.116974 251.980042,329.243073 248.929810,325.677917 
	C248.068085,326.440552 247.126266,327.274078 246.114716,328.549316 
z"/>
<path fill="#ED2028" opacity="1.000000" stroke="none" 
	d="
M176.993088,332.913635 
	C176.425934,330.288086 175.593338,326.206299 175.331375,326.242584 
	C171.082504,326.831329 173.644241,330.300354 173.065002,332.533142 
	C172.746246,333.761780 173.007950,335.140991 171.833191,337.447021 
	C170.887146,336.427429 169.216095,335.468353 169.125076,334.377441 
	C168.795074,330.421753 168.995026,326.421814 168.995026,322.088104 
	C172.011703,322.088104 174.964890,321.511658 177.488159,322.304108 
	C179.003784,322.780090 180.520447,325.270447 180.844772,327.070282 
	C181.392700,330.111115 180.995132,333.322296 180.995132,336.394836 
	C177.296036,338.033081 176.772461,336.150696 176.993088,332.913635 
z"/>
<path fill="#EE272F" opacity="1.000000" stroke="none" 
	d="
M165.929138,325.666382 
	C166.004349,329.578552 166.004349,333.060211 166.004349,336.186401 
	C163.574890,336.474213 161.314178,337.199829 159.252136,336.826935 
	C157.855179,336.574249 155.724365,334.775848 155.726212,333.671783 
	C155.729141,331.902344 156.874954,329.763580 158.213699,328.493408 
	C159.162857,327.592926 161.226730,327.867310 162.793045,327.617279 
	C162.838882,327.138153 162.884735,326.659027 162.930588,326.179901 
	C161.088928,325.919525 159.247284,325.659119 156.446472,325.263123 
	C157.300491,324.283752 157.923096,322.958771 158.927124,322.532745 
	C161.954544,321.248291 164.408310,322.120758 165.929138,325.666382 
z"/>
<path fill="#EF343B" opacity="1.000000" stroke="none" 
	d="
M240.591324,306.319824 
	C240.372086,301.805511 240.372086,297.680511 240.372086,293.470947 
	C243.272095,293.289459 246.000137,292.743835 248.596268,293.116669 
	C249.867706,293.299286 251.707458,295.079376 251.874832,296.326416 
	C252.330231,299.719391 252.031281,303.213623 252.031281,306.607178 
	C247.682114,307.956329 248.387207,305.084351 248.266891,302.886444 
	C248.145798,300.673950 247.947571,298.465729 247.753189,295.853302 
	C242.913223,297.246582 244.264023,300.664673 244.088455,303.314423 
	C243.944046,305.494049 244.458923,308.027618 240.591324,306.319824 
z"/>
<path fill="#EE242B" opacity="1.000000" stroke="none" 
	d="
M110.845970,306.497162 
	C108.414482,300.427063 109.725212,298.594177 116.863083,296.706177 
	C115.031219,296.485291 113.199356,296.264374 110.091995,295.889709 
	C111.459206,294.769562 112.459038,293.283112 113.651794,293.107605 
	C116.410004,292.701660 119.656624,292.482697 119.946182,296.587494 
	C120.177475,299.866272 119.992882,303.174438 119.992882,306.762573 
	C116.904037,306.762573 114.021469,306.762573 110.845970,306.497162 
z"/>
<path fill="#EE242B" opacity="1.000000" stroke="none" 
	d="
M213.016617,300.836182 
	C214.518692,297.960022 215.500763,294.230591 217.684433,293.289612 
	C222.170059,291.356750 224.612320,294.316895 224.651382,300.987854 
	C222.208542,300.987854 219.762573,300.987854 217.316605,300.987854 
	C217.179642,301.520538 217.042694,302.053253 216.905731,302.585938 
	C218.947601,303.194366 220.989456,303.802826 223.873871,304.662323 
	C223.264511,305.277374 222.521164,306.712738 221.532928,306.907867 
	C216.981949,307.806549 213.754440,306.302856 213.016617,300.836182 
z"/>
<path fill="#EE242B" opacity="1.000000" stroke="none" 
	d="
M139.392044,294.242401 
	C146.431793,291.610352 148.811111,293.273254 148.889359,300.804230 
	C146.476196,300.804230 144.056366,300.804230 141.636520,300.804230 
	C141.499298,301.352448 141.362076,301.900696 141.224854,302.448914 
	C143.309036,303.142151 145.393204,303.835388 148.196533,304.767822 
	C147.435364,305.473816 146.453659,306.999237 145.816757,306.866791 
	C143.295807,306.342438 139.256378,305.825287 138.774643,304.336456 
	C137.826172,301.405212 138.874741,297.827789 139.392044,294.242401 
z"/>
<path fill="#EE242B" opacity="1.000000" stroke="none" 
	d="
M265.681335,296.663788 
	C265.868835,298.194214 265.868835,299.342285 265.868835,300.867004 
	C263.410645,300.867004 260.974457,300.867004 258.538239,300.867004 
	C258.391083,301.376373 258.243896,301.885742 258.096741,302.395111 
	C260.102417,303.101227 262.108093,303.807312 264.964355,304.812866 
	C264.374481,305.381622 263.609070,306.778076 262.678436,306.898590 
	C259.330505,307.332123 255.915298,307.457581 254.871017,302.971680 
	C253.981842,299.152039 254.154648,295.306000 257.855042,293.470276 
	C260.591736,292.112579 264.157135,292.080963 265.681335,296.663788 
z"/>
<path fill="#ED2028" opacity="1.000000" stroke="none" 
	d="
M163.451752,293.115417 
	C170.146866,293.058899 171.145203,294.160370 170.686722,300.820709 
	C169.591736,300.881805 168.464874,300.944916 167.337997,301.007507 
	C166.196060,301.070953 165.054108,301.133881 163.912155,301.197021 
	C163.767456,301.661133 163.622772,302.125244 163.478073,302.589325 
	C165.526077,303.237183 167.574097,303.885040 170.871597,304.928131 
	C169.225723,305.844666 168.022934,307.085266 167.172180,306.878357 
	C164.867722,306.317902 161.544678,305.724030 160.733948,304.094482 
	C158.865967,300.339905 158.848267,296.102875 163.451752,293.115417 
z"/>
<path fill="#EE272F" opacity="1.000000" stroke="none" 
	d="
M141.865707,319.036743 
	C143.153839,319.073486 144.055283,319.173706 144.956711,319.273956 
	C142.807495,321.994995 151.423920,321.933685 146.570374,325.893494 
	C145.362503,326.878937 146.274048,330.616577 146.457031,333.070892 
	C146.523560,333.963257 147.306091,334.802246 147.761932,335.665558 
	C146.645874,336.089600 145.123688,337.182312 144.496552,336.801331 
	C143.102951,335.954987 141.688110,334.545074 141.131577,333.048859 
	C140.108093,330.297302 139.270706,327.329773 139.190201,324.429077 
	C139.141541,322.675293 140.663010,320.877991 141.865707,319.036743 
z"/>
<path fill="#EE242B" opacity="1.000000" stroke="none" 
	d="
M150.454346,295.726044 
	C151.443909,292.933075 152.775406,290.389954 154.324966,287.430359 
	C155.941620,290.105011 156.926346,291.637817 157.799026,293.231964 
	C158.090469,293.764374 158.402786,294.843201 158.186386,295.013824 
	C153.369019,298.812622 156.313278,302.566742 158.495697,306.256805 
	C152.675369,307.566010 152.163437,307.112976 151.934631,301.767456 
	C151.851440,299.824280 151.192520,297.905701 150.454346,295.726044 
z"/>
<path fill="#EE242B" opacity="1.000000" stroke="none" 
	d="
M267.753418,303.593262 
	C269.582855,303.832733 271.046753,303.923035 272.900055,304.037384 
	C271.824341,300.271240 264.099335,299.821014 268.269257,294.547699 
	C269.324402,293.213318 272.390381,293.279755 274.559967,293.144196 
	C275.128418,293.108704 275.800262,294.728455 276.879181,296.213837 
	C274.386932,296.213837 272.888031,296.213837 270.324005,296.213837 
	C273.743927,298.773926 278.466309,300.650269 275.679199,304.840424 
	C274.422729,306.729401 270.465759,306.822083 266.969086,307.983948 
	C267.189880,305.590576 267.288879,304.517334 267.753418,303.593262 
z"/>
<path fill="#EE272F" opacity="1.000000" stroke="none" 
	d="
M288.277100,336.434387 
	C285.184967,337.089691 282.212189,337.970123 282.012238,333.368591 
	C283.993652,333.368591 285.757996,333.368591 288.155975,333.368591 
	C285.994049,330.135681 280.050140,330.023132 282.576447,325.113708 
	C283.348999,323.612366 285.771729,322.545532 287.619232,322.171844 
	C288.679657,321.957275 290.102417,323.533783 291.362061,324.304047 
	C291.161407,324.673645 290.960754,325.043213 290.760101,325.412811 
	C289.191772,325.556061 287.623444,325.699341 284.993500,325.939575 
	C292.190369,330.918030 292.663147,332.715210 288.277100,336.434387 
z"/>
<path fill="#EE242B" opacity="1.000000" stroke="none" 
	d="
M278.343140,299.308868 
	C277.365143,294.694122 278.994232,292.482635 283.452911,293.049805 
	C284.449951,293.176636 285.343689,294.115479 286.285004,294.680450 
	C285.414642,295.127960 284.562988,295.618683 283.666840,296.006531 
	C283.145294,296.232208 282.552399,296.292938 280.967072,296.674408 
	C282.630219,297.512665 283.431061,297.841675 284.154510,298.294373 
	C286.707489,299.891907 288.436981,302.623596 286.369507,304.824921 
	C284.845795,306.447296 281.436981,306.324310 278.843109,306.857239 
	C278.679230,306.890961 277.980804,305.780396 278.097290,305.358490 
	C278.248260,304.811768 278.905548,304.149017 279.456390,304.022705 
	C280.542389,303.773590 281.705231,303.859436 284.462463,303.731018 
	C281.723969,301.848053 280.134125,300.754913 278.343140,299.308868 
z"/>
<path fill="#EE272F" opacity="1.000000" stroke="none" 
	d="
M172.707703,296.196442 
	C173.617432,291.839386 176.824509,293.117767 179.247070,293.098694 
	C179.953140,293.093140 180.669785,294.426117 182.164078,295.936432 
	C179.403931,295.936432 177.987228,295.936432 176.107208,295.936432 
	C177.669373,299.174377 183.775894,299.469971 181.233002,304.255249 
	C180.518524,305.599792 178.346741,306.540070 176.679626,306.893799 
	C175.286972,307.189301 173.655014,306.356964 172.129044,306.024078 
	C172.218079,305.445435 172.307114,304.866791 172.396149,304.288147 
	C174.104568,304.111938 175.812988,303.935699 177.541321,303.757416 
	C175.879501,301.348083 174.224731,298.948944 172.707703,296.196442 
z"/>
<path fill="#EE272F" opacity="1.000000" stroke="none" 
	d="
M226.977219,292.121155 
	C226.977188,290.001160 226.977188,288.362122 226.977188,286.723053 
	C227.310898,286.374634 227.644592,286.026184 227.978302,285.677734 
	C228.948959,286.620178 230.705994,287.520660 230.758896,288.512085 
	C231.039825,293.776733 231.026596,299.070282 230.787018,304.338898 
	C230.736481,305.450470 229.313858,306.499664 228.523438,307.577606 
	C228.008041,307.329346 227.492645,307.081055 226.977249,306.832794 
	C226.977249,302.089233 226.977249,297.345642 226.977219,292.121155 
z"/>
<path fill="#EF343B" opacity="1.000000" stroke="none" 
	d="
M237.392075,306.352417 
	C236.086334,306.077728 234.122620,305.454285 234.094696,304.753632 
	C233.851074,298.644226 233.954010,292.520996 233.954010,286.401855 
	C234.430908,286.139740 234.907791,285.877594 235.384689,285.615448 
	C236.169022,286.756348 237.587738,287.874268 237.629990,289.042023 
	C237.833817,294.676605 237.666992,300.324615 237.392075,306.352417 
z"/>
<path fill="#ED2028" opacity="1.000000" stroke="none" 
	d="
M132.518005,322.011841 
	C134.455185,322.135498 135.965179,322.246948 137.487534,322.359314 
	C135.984299,326.758209 134.388138,331.429047 132.553085,336.798920 
	C132.342972,336.721008 130.591690,336.618347 130.167160,335.814758 
	C128.727036,333.088776 130.359055,323.086761 132.518005,322.011841 
z"/>
<path fill="#EF343B" opacity="1.000000" stroke="none" 
	d="
M224.389786,336.356628 
	C223.084076,336.080322 221.151138,335.484497 221.097717,334.751648 
	C220.798767,330.651184 220.953888,326.517578 220.953888,322.395294 
	C221.391693,322.114502 221.829498,321.833679 222.267319,321.552856 
	C223.088913,322.547699 224.547333,323.499603 224.617859,324.545135 
	C224.873734,328.337738 224.664291,332.161713 224.389786,336.356628 
z"/>
<path fill="#EF343B" opacity="1.000000" stroke="none" 
	d="
M107.052017,299.997620 
	C107.052055,302.445496 107.052055,304.415771 107.052055,306.386047 
	C106.640106,306.681885 106.228165,306.977692 105.816216,307.273529 
	C104.967247,306.255890 103.245651,305.049225 103.418159,304.252838 
	C104.227936,300.514282 100.888214,295.494476 107.051979,291.816162 
	C107.051979,295.290833 107.051979,297.405396 107.052017,299.997620 
z"/>
<path fill="#727273" opacity="1.000000" stroke="none" 
	d="
M214.462723,386.897156 
	C214.184158,385.032349 214.351929,383.228394 215.234161,381.203064 
	C217.604233,380.928497 219.259811,380.875275 220.915390,380.822083 
	C221.608414,382.586884 222.301437,384.351715 223.005905,386.475342 
	C220.314590,386.875427 217.611816,386.916718 214.462723,386.897156 
z"/>
<path fill="#855706" opacity="1.000000" stroke="none" 
	d="
M288.913086,168.474411 
	C288.573608,167.195694 288.045135,165.455948 288.038757,163.714294 
	C287.986145,149.303833 288.030151,134.893036 288.041138,119.973755 
	C288.353363,121.023933 288.936890,122.581520 288.943665,124.141632 
	C289.007446,138.765015 288.972473,153.388809 288.913086,168.474411 
z"/>
<path fill="#161616" opacity="1.000000" stroke="none" 
	d="
M416.931396,354.710785 
	C416.604584,354.908936 416.372894,354.753662 416.110718,354.321350 
	C416.340302,354.231323 416.655731,354.335663 416.931396,354.710785 
z"/>
<path fill="#FEFEFE" opacity="1.000000" stroke="none" 
	d="
M357.146545,315.010498 
	C357.160675,318.649261 357.185059,321.797333 357.169861,324.945160 
	C357.147949,329.482605 353.893280,331.219147 350.294678,331.889069 
	C346.611755,332.574799 344.834259,330.160217 343.890350,326.689178 
	C341.401733,317.537781 344.725830,305.394653 357.139099,303.291321 
	C357.139099,307.082825 357.139099,310.801270 357.146545,315.010498 
z"/>
<path fill="#FEFEFE" opacity="1.000000" stroke="none" 
	d="
M399.755127,274.156464 
	C401.066711,276.476776 402.843933,278.565491 402.882294,280.685699 
	C403.134796,294.647675 403.034973,308.616486 403.000763,322.582916 
	C402.988861,327.443024 400.884308,330.001221 397.096710,329.999756 
	C392.711395,329.998016 391.018372,327.892853 391.016083,322.392975 
	C391.010193,308.093903 390.992035,293.794769 391.024811,279.495789 
	C391.036621,274.341400 394.317108,272.212006 399.755127,274.156464 
z"/>
<path fill="#FEFEFE" opacity="1.000000" stroke="none" 
	d="
M337.504120,381.056000 
	C337.046753,374.641052 337.029572,368.305481 337.061127,361.506592 
	C341.440826,361.028168 345.816040,360.637512 350.085907,361.140808 
	C352.595398,361.436615 355.863892,362.549713 357.077393,364.411926 
	C358.152405,366.061554 356.858307,369.255035 356.621735,371.649231 
	C357.186279,374.466400 357.787720,377.467651 358.469360,380.869293 
	C356.269409,380.869293 354.865082,380.869293 353.471100,380.869293 
	C352.348480,373.519531 351.863281,373.188660 342.197723,373.439789 
	C342.197723,375.825958 342.197723,378.237152 342.197723,381.135406 
	C340.470337,381.135406 339.207306,381.135406 337.504120,381.056000 
M352.368469,365.953430 
	C349.099091,365.079041 345.829681,364.204651 342.248413,363.246826 
	C342.248413,366.239868 342.248413,367.965637 342.248413,370.123932 
	C346.019470,368.937592 350.868713,372.636719 352.368469,365.953430 
z"/>
<path fill="#FAFAFA" opacity="1.000000" stroke="none" 
	d="
M392.004822,365.924194 
	C394.578705,367.240082 397.384216,367.754639 399.619232,369.170044 
	C402.016937,370.688568 405.102356,372.754089 405.682617,375.121368 
	C406.523376,378.551666 403.423523,380.283539 399.997772,381.230011 
	C393.494415,383.026794 389.047760,381.472412 386.001923,375.510284 
	C391.002258,372.644806 395.824951,382.909546 401.295135,374.808746 
	C398.396301,373.808411 395.731903,372.744171 392.984436,371.977997 
	C389.638458,371.044952 386.572144,370.004486 387.002502,365.625244 
	C387.445160,361.121277 390.779572,360.306702 394.402771,360.010376 
	C398.959412,359.637604 402.941010,360.472229 405.365326,366.810333 
	C402.523163,365.706543 400.554352,365.158844 398.801788,364.211212 
	C396.069122,362.733582 393.687256,362.079041 392.004822,365.924194 
z"/>
<path fill="#FEFEFE" opacity="1.000000" stroke="none" 
	d="
M363.045532,379.826843 
	C363.012177,373.389313 363.012177,367.439301 363.012177,361.002869 
	C368.769958,361.002869 374.205566,360.936188 379.635742,361.076630 
	C380.426575,361.097107 381.191833,362.107239 381.968903,362.659424 
	C381.141327,363.164948 380.332794,364.065765 379.482849,364.106720 
	C376.027710,364.273163 372.559845,364.175934 368.727234,364.175934 
	C368.586823,365.886414 368.475342,367.244598 368.330750,369.006561 
	C371.854584,369.006561 374.992645,368.926056 378.120911,369.065491 
	C378.864929,369.098663 379.576202,369.867798 380.302521,370.298401 
	C379.554840,370.863892 378.833771,371.870422 378.054840,371.917419 
	C374.942261,372.105286 371.811676,371.994934 368.524597,371.994934 
	C368.524597,374.013458 368.524597,375.596283 368.524597,377.893188 
	C372.461792,377.893188 376.221497,377.819336 379.972992,377.961731 
	C380.642487,377.987183 381.434418,378.812378 381.840546,379.471252 
	C381.974823,379.689087 381.060791,381.044739 380.648376,381.033875 
	C374.789642,380.879395 368.934692,380.579315 363.045532,379.826843 
z"/>
<path fill="#FEFEFE" opacity="1.000000" stroke="none" 
	d="
M269.972778,249.872681 
	C272.315582,248.753250 274.301575,247.778625 276.993103,246.457779 
	C276.993103,253.425369 277.594971,259.741669 276.686157,265.832550 
	C276.340210,268.151337 272.780396,271.141510 270.227142,271.689026 
	C267.029175,272.374756 265.204529,269.234314 264.999359,265.876465 
	C264.643066,260.046265 264.848419,254.363327 269.972778,249.872681 
z"/>
<path fill="#FAFAFA" opacity="1.000000" stroke="none" 
	d="
M145.878616,227.307068 
	C145.518539,231.009415 145.130936,234.287903 144.717377,237.785980 
	C140.992493,237.785980 137.234222,237.785980 132.805740,237.785980 
	C133.073853,234.117416 133.158920,230.536972 133.641113,227.010834 
	C134.160019,223.216110 135.749786,220.014908 140.278030,220.032318 
	C144.753693,220.049545 145.132996,223.665710 145.878616,227.307068 
z"/>
<path fill="#FAFAFA" opacity="1.000000" stroke="none" 
	d="
M257.875916,372.474213 
	C257.877289,369.266968 258.134521,366.500519 257.947083,363.764587 
	C257.766235,361.125580 259.115479,360.805817 261.581482,360.950989 
	C264.585754,363.723907 267.190125,366.542786 269.710052,369.435211 
	C270.655212,370.520081 271.404053,371.775970 273.492371,372.822479 
	C273.743073,369.080872 273.993744,365.339264 274.359863,359.874664 
	C276.072418,361.559937 277.879181,362.500183 277.928589,363.525116 
	C278.206909,369.302399 278.062897,375.100006 278.062897,381.138428 
	C268.699677,381.867401 268.815979,372.139282 262.953003,368.898346 
	C262.953003,372.745667 262.953003,376.595459 262.953003,380.801178 
	C261.143616,380.941010 259.780121,381.046387 257.937317,381.188812 
	C257.937317,378.181366 257.937317,375.554871 257.875916,372.474213 
z"/>
<path fill="#F9F8F8" opacity="1.000000" stroke="none" 
	d="
M287.575623,360.938019 
	C293.112946,360.865845 298.216858,360.865845 303.291168,360.865845 
	C303.503754,363.825836 303.503754,363.825836 296.983215,364.884125 
	C296.983215,370.009094 296.983215,375.228485 296.983215,380.905640 
	C295.007874,381.019073 293.438324,381.109192 291.434387,381.099731 
	C291.000000,375.605377 291.000000,370.210571 291.000000,365.246552 
	C288.319153,364.292358 286.107574,363.505188 283.895966,362.717987 
	C284.978088,362.148743 286.060181,361.579468 287.575623,360.938019 
z"/>
<path fill="#FAFAFA" opacity="1.000000" stroke="none" 
	d="
M312.431488,379.945618 
	C311.121033,375.482330 310.060303,371.186401 309.283142,366.839783 
	C308.970856,365.093231 309.281189,363.235352 309.655334,361.172913 
	C311.494232,360.917664 312.985901,360.917664 315.016663,360.917664 
	C315.016663,364.867493 315.125763,368.643433 314.983917,372.409912 
	C314.858643,375.736694 315.827362,377.953522 319.558350,377.979126 
	C322.747131,378.001038 325.876862,378.388916 325.477753,373.289368 
	C325.176788,369.444855 325.991455,365.512970 326.340546,361.240662 
	C327.596863,361.154236 328.998169,361.057831 330.991425,360.920685 
	C330.991425,365.920135 331.297302,370.704163 330.910767,375.431580 
	C330.469421,380.829498 323.089539,382.614014 317.828918,381.853394 
	C316.102203,381.603760 314.470306,380.698242 312.431488,379.945618 
z"/>
<path fill="#FFFEFE" opacity="1.000000" stroke="none" 
	d="
M238.267731,381.290466 
	C236.712021,381.181122 235.583710,381.009247 234.242630,380.804993 
	C234.242630,374.347595 234.242630,367.965546 234.242630,361.041870 
	C235.946640,361.041870 237.541321,361.041870 239.575684,360.966797 
	C243.817184,360.891693 247.618973,360.891693 251.434387,360.891693 
	C251.303665,364.177185 251.303665,364.178802 246.934723,364.184998 
	C244.458237,364.188538 241.981735,364.185669 239.468353,364.185669 
	C238.417679,367.692627 239.568802,369.136719 242.929092,369.001282 
	C244.922958,368.920959 246.945709,368.827728 248.910141,369.085602 
	C249.764114,369.197723 250.504135,370.178009 251.181320,370.679199 
	C247.604889,374.619781 238.909851,367.449768 239.041321,377.876526 
	C242.902893,377.876526 246.377441,377.766632 249.837418,377.942780 
	C250.890396,377.996399 251.903214,378.838623 252.934418,379.319672 
	C251.849701,379.928802 250.795609,380.988037 249.674637,381.064301 
	C246.027969,381.312378 242.356842,381.200989 238.267731,381.290466 
z"/>
<path fill="#FEFEFE" opacity="1.000000" stroke="none" 
	d="
M220.993591,380.468536 
	C219.259811,380.875275 217.604233,380.928497 215.534790,380.961731 
	C212.353287,374.527466 209.585648,368.113129 206.650330,361.310211 
	C208.540146,361.201111 209.836105,361.126343 211.531189,361.108704 
	C213.711685,365.920380 215.493042,370.674927 217.479218,375.976166 
	C219.863129,370.799469 222.094437,365.954132 224.669312,360.987732 
	C226.152374,360.978455 227.291840,361.090210 228.857986,361.243805 
	C226.210175,367.661224 223.640976,373.888123 220.993591,380.468536 
z"/>
<path fill="#FAFAFA" opacity="1.000000" stroke="none" 
	d="
M89.998062,298.786438 
	C89.998062,296.045380 89.998062,293.758636 89.998062,291.377167 
	C94.398277,290.233215 96.412369,292.290527 96.956421,296.013824 
	C97.676476,300.941589 95.685226,303.133148 90.223221,303.542480 
	C90.147987,302.104980 90.073029,300.672821 89.998062,298.786438 
z"/>
<path fill="#FAFAFA" opacity="1.000000" stroke="none" 
	d="
M234.995575,326.798431 
	C236.318207,332.117279 235.775497,332.906250 230.967697,332.549866 
	C232.210266,330.329498 227.751785,325.183502 234.995575,326.798431 
z"/>
<path fill="#F9F8F8" opacity="1.000000" stroke="none" 
	d="
M187.444443,332.379089 
	C187.138580,331.558411 186.896484,330.995270 187.059219,330.597870 
	C187.702744,329.026276 188.473160,327.506622 189.196533,325.967743 
	C190.120422,327.246033 191.707016,328.464966 191.827942,329.815186 
	C192.067459,332.489380 190.422363,333.657013 187.444443,332.379089 
z"/>
<path fill="#F9F8F8" opacity="1.000000" stroke="none" 
	d="
M130.539673,296.386749 
	C131.203094,297.182556 131.928391,297.858673 131.803391,298.286163 
	C131.250122,300.178192 130.452484,301.998749 129.743301,303.845184 
	C128.836670,303.156494 127.172997,302.479034 127.162598,301.777069 
	C127.128822,299.497192 125.647682,296.045685 130.539673,296.386749 
z"/>
<path fill="#282828" opacity="1.000000" stroke="none" 
	d="
M352.599487,366.284546 
	C350.868713,372.636719 346.019470,368.937592 342.248413,370.123932 
	C342.248413,367.965637 342.248413,366.239868 342.248413,363.246826 
	C345.829681,364.204651 349.099091,365.079041 352.599487,366.284546 
z"/>
</svg>